<svg xmlns="http://www.w3.org/2000/svg" xmlns:oryx="http://oryx-editor.org" id="_A4F150B8-46C1-48BF-BEB4-5DB2CE6B69D9" width="733" height="321" xmlns:xlink="http://www.w3.org/1999/xlink" xmlns:svg="http://www.w3.org/2000/svg"><defs><marker id="_B7CE174B-BF4C-4A76-B89C-87CDB61C6CD6start" refX="1" refY="5" markerUnits="userSpaceOnUse" markerWidth="17" markerHeight="11" orient="auto" fill="#000000" stroke="#000000"> 	  		<path id="_B7CE174B-BF4C-4A76-B89C-87CDB61C6CD6conditional" d="M 0 5 L 8 0 L 16 5 L 8 10 L 0 5" fill="white" stroke="#000000" stroke-width="1" display="none"/> 			<path id="_B7CE174B-BF4C-4A76-B89C-87CDB61C6CD6default" d="M 5 0 L 11 10" fill="white" stroke="#000000" stroke-width="1" display="none"/> 	  	</marker><marker id="_B7CE174B-BF4C-4A76-B89C-87CDB61C6CD6end" refX="15" refY="6" markerUnits="userSpaceOnUse" markerWidth="15" markerHeight="12" orient="auto" fill="#000000" stroke="#000000"> 	  		<path id="_B7CE174B-BF4C-4A76-B89C-87CDB61C6CD6frame2" d="M 0 1 L 15 6 L 0 11z" fill="#000000" stroke="#000000" stroke-linejoin="round" stroke-width="2"/> 	  	</marker><marker id="_FBF692FF-9FA1-4423-BB08-1BEC853285A3start" refX="1" refY="5" markerUnits="userSpaceOnUse" markerWidth="17" markerHeight="11" orient="auto" fill="#000000" stroke="#000000"> 	  		<path id="_FBF692FF-9FA1-4423-BB08-1BEC853285A3conditional" d="M 0 5 L 8 0 L 16 5 L 8 10 L 0 5" fill="white" stroke="#000000" stroke-width="1" display="none"/> 			<path id="_FBF692FF-9FA1-4423-BB08-1BEC853285A3default" d="M 5 0 L 11 10" fill="white" stroke="#000000" stroke-width="1" display="none"/> 	  	</marker><marker id="_FBF692FF-9FA1-4423-BB08-1BEC853285A3end" refX="15" refY="6" markerUnits="userSpaceOnUse" markerWidth="15" markerHeight="12" orient="auto" fill="#000000" stroke="#000000"> 	  		<path id="_FBF692FF-9FA1-4423-BB08-1BEC853285A3frame2" d="M 0 1 L 15 6 L 0 11z" fill="#000000" stroke="#000000" stroke-linejoin="round" stroke-width="2"/> 	  	</marker><marker id="_34FBD464-D72C-4B5E-AEE7-7ADD4011BFC3start" refX="1" refY="5" markerUnits="userSpaceOnUse" markerWidth="17" markerHeight="11" orient="auto" fill="#000000" stroke="#000000"> 	  		<path id="_34FBD464-D72C-4B5E-AEE7-7ADD4011BFC3conditional" d="M 0 5 L 8 0 L 16 5 L 8 10 L 0 5" fill="white" stroke="#000000" stroke-width="1" display="none"/> 			<path id="_34FBD464-D72C-4B5E-AEE7-7ADD4011BFC3default" d="M 5 0 L 11 10" fill="white" stroke="#000000" stroke-width="1" display="none"/> 	  	</marker><marker id="_34FBD464-D72C-4B5E-AEE7-7ADD4011BFC3end" refX="15" refY="6" markerUnits="userSpaceOnUse" markerWidth="15" markerHeight="12" orient="auto" fill="#000000" stroke="#000000"> 	  		<path id="_34FBD464-D72C-4B5E-AEE7-7ADD4011BFC3frame2" d="M 0 1 L 15 6 L 0 11z" fill="#000000" stroke="#000000" stroke-linejoin="round" stroke-width="2"/> 	  	</marker><marker id="_5AB8500C-0344-44FD-86A1-837F67B8644Cstart" refX="1" refY="5" markerUnits="userSpaceOnUse" markerWidth="17" markerHeight="11" orient="auto" fill="#000000" stroke="#000000"> 	  		<path id="_5AB8500C-0344-44FD-86A1-837F67B8644Cconditional" d="M 0 5 L 8 0 L 16 5 L 8 10 L 0 5" fill="white" stroke="#000000" stroke-width="1" display="none"/> 			<path id="_5AB8500C-0344-44FD-86A1-837F67B8644Cdefault" d="M 5 0 L 11 10" fill="white" stroke="#000000" stroke-width="1" display="none"/> 	  	</marker><marker id="_5AB8500C-0344-44FD-86A1-837F67B8644Cend" refX="15" refY="6" markerUnits="userSpaceOnUse" markerWidth="15" markerHeight="12" orient="auto" fill="#000000" stroke="#000000"> 	  		<path id="_5AB8500C-0344-44FD-86A1-837F67B8644Cframe2" d="M 0 1 L 15 6 L 0 11z" fill="#000000" stroke="#000000" stroke-linejoin="round" stroke-width="2"/> 	  	</marker><marker id="_0C4CFD32-F23F-4A3D-AF6A-BBE2962F0FB0start" refX="1" refY="5" markerUnits="userSpaceOnUse" markerWidth="17" markerHeight="11" orient="auto" fill="#000000" stroke="#000000"> 	  		<path id="_0C4CFD32-F23F-4A3D-AF6A-BBE2962F0FB0conditional" d="M 0 5 L 8 0 L 16 5 L 8 10 L 0 5" fill="white" stroke="#000000" stroke-width="1" display="none"/> 			<path id="_0C4CFD32-F23F-4A3D-AF6A-BBE2962F0FB0default" d="M 5 0 L 11 10" fill="white" stroke="#000000" stroke-width="1" display="none"/> 	  	</marker><marker id="_0C4CFD32-F23F-4A3D-AF6A-BBE2962F0FB0end" refX="15" refY="6" markerUnits="userSpaceOnUse" markerWidth="15" markerHeight="12" orient="auto" fill="#000000" stroke="#000000"> 	  		<path id="_0C4CFD32-F23F-4A3D-AF6A-BBE2962F0FB0frame2" d="M 0 1 L 15 6 L 0 11z" fill="#000000" stroke="#000000" stroke-linejoin="round" stroke-width="2"/> 	  	</marker><marker id="_AC2CE5D7-E2EC-4896-AE7D-0ED8AAD09710start" refX="1" refY="5" markerUnits="userSpaceOnUse" markerWidth="17" markerHeight="11" orient="auto" fill="#000000" stroke="#000000"> 	  		<path id="_AC2CE5D7-E2EC-4896-AE7D-0ED8AAD09710conditional" d="M 0 5 L 8 0 L 16 5 L 8 10 L 0 5" fill="white" stroke="#000000" stroke-width="1" display="none"/> 			<path id="_AC2CE5D7-E2EC-4896-AE7D-0ED8AAD09710default" d="M 5 0 L 11 10" fill="white" stroke="#000000" stroke-width="1" display="none"/> 	  	</marker><marker id="_AC2CE5D7-E2EC-4896-AE7D-0ED8AAD09710end" refX="15" refY="6" markerUnits="userSpaceOnUse" markerWidth="15" markerHeight="12" orient="auto" fill="#000000" stroke="#000000"> 	  		<path id="_AC2CE5D7-E2EC-4896-AE7D-0ED8AAD09710frame2" d="M 0 1 L 15 6 L 0 11z" fill="#000000" stroke="#000000" stroke-linejoin="round" stroke-width="2"/> 	  	</marker></defs><g stroke="none" font-family="Verdana, sans-serif" font-size-adjust="none" font-style="normal" font-variant="normal" font-weight="normal" line-heigth="normal" font-size="12"><g class="stencils" transform="translate(16, 16)"><g class="me"/><g class="children"><g id="_D77320B1-B2CD-4665-B946-5CBE06CD9D2C" bpmn2nodeid="processStartEvent"><g class="stencils" transform="translate(150, 225)"><g class="me"><g pointer-events="fill" id="_D77320B1-B2CD-4665-B946-5CBE06CD9D2C">        <defs id="_D77320B1-B2CD-4665-B946-5CBE06CD9D2C__D77320B1-B2CD-4665-B946-5CBE06CD9D2C_5"> 		<radialGradient id="_D77320B1-B2CD-4665-B946-5CBE06CD9D2Cbackground" cx="10%" cy="10%" r="100%" fx="10%" fy="10%"> 			<stop offset="0%" stop-color="#ffffff" stop-opacity="1" id="_D77320B1-B2CD-4665-B946-5CBE06CD9D2C__D77320B1-B2CD-4665-B946-5CBE06CD9D2C_6"/> 			<stop id="_D77320B1-B2CD-4665-B946-5CBE06CD9D2Cfill_el" offset="100%" stop-color="#9acd32" stop-opacity="1"/> 		</radialGradient> 	</defs> 	     <circle id="_D77320B1-B2CD-4665-B946-5CBE06CD9D2Cbg_frame" cx="15" cy="15" r="15" stroke="#000000" fill="url(#_D77320B1-B2CD-4665-B946-5CBE06CD9D2Cbackground) white" stroke-width="1" style="stroke-dasharray: 5.5, 3"/>      <circle id="_D77320B1-B2CD-4665-B946-5CBE06CD9D2Cframe" cx="15" cy="15" r="15" stroke="#000000" fill="none" stroke-width="1" display="inherit"/>  	<text font-size="11" id="_D77320B1-B2CD-4665-B946-5CBE06CD9D2Ctext_name" x="15" y="32" oryx:align="top center" stroke="black" stroke-width="0pt" letter-spacing="-0.01px" fill="#000000" text-anchor="middle" transform="rotate(0 15 32)" visibility="inherit" oryx:fontSize="11"/>   </g></g><g class="children" style="overflow:hidden"/><g class="edge"/></g><g class="controls"><g class="dockers"/><g class="magnets" transform="translate(150, 225)"><g pointer-events="all" display="none" transform="translate(7, 7)"><circle cx="8" cy="8" r="4" stroke="none" fill="red" fill-opacity="0.3"/></g></g></g></g><g id="_F13EFC86-6E9B-460E-A7E2-26694AA07DFD" bpmn2nodeid="_A4127042-86B4-4A34-A4C6-C3B21B5CC1B2"><g class="stencils" transform="translate(375, 200)"><g class="me"><g pointer-events="fill" oryx:minimumSize="50 40" id="_F13EFC86-6E9B-460E-A7E2-26694AA07DFD">   	<defs id="_F13EFC86-6E9B-460E-A7E2-26694AA07DFD__F13EFC86-6E9B-460E-A7E2-26694AA07DFD_17"> 		<radialGradient id="_F13EFC86-6E9B-460E-A7E2-26694AA07DFDbackground" cx="10%" cy="10%" r="100%" fx="10%" fy="10%"> 			<stop offset="0%" stop-color="#ffffff" stop-opacity="1" id="_F13EFC86-6E9B-460E-A7E2-26694AA07DFD__F13EFC86-6E9B-460E-A7E2-26694AA07DFD_18"/> 			<stop id="_F13EFC86-6E9B-460E-A7E2-26694AA07DFDfill_el" offset="100%" stop-color="#fafad2" stop-opacity="1"/> 		</radialGradient> 		<radialGradient id="_F13EFC86-6E9B-460E-A7E2-26694AA07DFDborderbackground" cx="10%" cy="10%" r="100%" fx="10%" fy="10%"> 			<stop offset="0%" stop-color="#ffffff" stop-opacity="1" id="_F13EFC86-6E9B-460E-A7E2-26694AA07DFD__F13EFC86-6E9B-460E-A7E2-26694AA07DFD_19"/> 			<stop id="_F13EFC86-6E9B-460E-A7E2-26694AA07DFDfill_border" offset="100%" stop-color="#000000" stop-opacity="1" stroke="#000000"/> 		</radialGradient> 	</defs> 	 	<rect id="_F13EFC86-6E9B-460E-A7E2-26694AA07DFDtext_frame" oryx:anchors="bottom top right left" x="1" y="1" width="94" height="79" rx="10" ry="10" stroke="none" stroke-width="0" fill="none"/> 	<rect id="_F13EFC86-6E9B-460E-A7E2-26694AA07DFDbg_frame" oryx:resize="vertical horizontal" x="0" y="0" width="100" height="80" rx="10" ry="10" stroke="#000000" stroke-width="1" fill="url(#_F13EFC86-6E9B-460E-A7E2-26694AA07DFDbackground) #ffffcc"/> 		<text font-size="12" id="_F13EFC86-6E9B-460E-A7E2-26694AA07DFDtext_name" x="50" y="40" oryx:align="middle center" oryx:fittoelem="text_frame" stroke="black" text-anchor="middle" stroke-width="0pt" letter-spacing="-0.01px" fill="#000000" transform="rotate(0 50 40)" visibility="inherit" oryx:fontSize="12"><tspan x="50" y="40" dy="-1">Elaborar </tspan><tspan x="50" y="40" dy="11">Documento</tspan></text>     <g id="_F13EFC86-6E9B-460E-A7E2-26694AA07DFDmanualTask" transform="scale(0.7,0.7) translate(8,8)" display="none">     	<path oryx:anchors="top left" id="_F13EFC86-6E9B-460E-A7E2-26694AA07DFDframe" style="opacity:1;fill:none;fill-opacity:1;stroke-width:1" d="M0.5,3.751l4.083-3.25c0,0,11.166,0.083,12.083,0.083s-2.417,2.917-1.5,2.917     s11.667,0,12.584,0c1.166,1.708-0.168,3.167-0.834,3.667s0.875,1.917-1,4.417c-0.75,0.25,0.75,1.875-1.333,3.333     c-1.167,0.583,0.583,1.542-1.25,2.833c-1.167,0-20.833,0.083-20.833,0.083l-2-1.333V3.751z" stroke="#000000"/> 		<path id="_F13EFC86-6E9B-460E-A7E2-26694AA07DFDframe2" oryx:anchors="top left" style="opacity:1;fill:none;stroke-width:2" d="M 13.5 7 L 27 7" stroke="#000000"/> 		<path id="_F13EFC86-6E9B-460E-A7E2-26694AA07DFDframe3" oryx:anchors="top left" style="opacity:1;fill:none;stroke-width:2" d="M 13.5 11 L 26 11" stroke="#000000"/> 		<path id="_F13EFC86-6E9B-460E-A7E2-26694AA07DFDframe4" oryx:anchors="top left" style="opacity:1;fill:none;stroke-width:1.5" d="M 14 14.5 L 25 14.5" stroke="#000000"/> 		<path id="_F13EFC86-6E9B-460E-A7E2-26694AA07DFDframe5" oryx:anchors="top left" style="opacity:1;fill:none;stroke-width:1.5" d="M 8.2 3.1 L 15 3.1" stroke="#000000"/> 	</g> 	 	<g id="_F13EFC86-6E9B-460E-A7E2-26694AA07DFDbusinessRuleTask" transform="scale(0.7,0.7) translate(8,8)" display="none"> 		<rect id="_F13EFC86-6E9B-460E-A7E2-26694AA07DFDframe6" oryx:anchors="top left" x="0" y="0" width="22" height="4" style="opacity:1;fill:#B3B1B3;fill-opacity:1;" stroke="#000000"/> 		<rect id="_F13EFC86-6E9B-460E-A7E2-26694AA07DFDframe7" oryx:anchors="top left" x="0" y="4" style="opacity:1;fill:none;" width="22" height="12" stroke="#000000"/> 		<path id="_F13EFC86-6E9B-460E-A7E2-26694AA07DFDframe8" oryx:anchors="top left" style="opacity:1;fill:none;" d="M 0 10 L 22 10" stroke="#000000"/> 		<path id="_F13EFC86-6E9B-460E-A7E2-26694AA07DFDframe9" oryx:anchors="top left" style="opacity:1; fill:none;" d="M 7 4 L 7 16" stroke="#000000"/> 	</g> 	 	<g id="_F13EFC86-6E9B-460E-A7E2-26694AA07DFDscriptTask" transform="scale(0.7,0.7) translate(8,8)" display="none"> 		<path oryx:anchors="top left" id="_F13EFC86-6E9B-460E-A7E2-26694AA07DFDframe10" style="opacity:1;fill:none;" stroke="#000000" d="M6.402,0.5h14.5c0,0-5.833,2.833-5.833,5.583s4.417,6,4.417,9.167    s-4.167,5.083-4.167,5.083H0.235c0,0,5-2.667,5-5s-4.583-6.75-4.583-9.25S6.402,0.5,6.402,0.5z"/> 		<path oryx:anchors="top left" id="_F13EFC86-6E9B-460E-A7E2-26694AA07DFDframe11" style="opacity:1;fill:none;stroke-width:1.5" d="M 3.5 4.5 L 13.5 4.5" stroke="#000000"/> 		<path oryx:anchors="top left" id="_F13EFC86-6E9B-460E-A7E2-26694AA07DFDframe12" style="opacity:1;fill:none;stroke-width:1.5" d="M 3.8 8.5 L 13.8 8.5" stroke="#000000"/> 		<path oryx:anchors="top left" id="_F13EFC86-6E9B-460E-A7E2-26694AA07DFDframe13" style="opacity:1;fill:none;stroke-width:1.5" d="M 6.3 12.5 L 16.3 12.5" stroke="#000000"/> 		<path oryx:anchors="top left" id="_F13EFC86-6E9B-460E-A7E2-26694AA07DFDframe14" style="opacity:1;fill:none;stroke-width:1.5" d="M 6.5 16.5 L 16.5 16.5" stroke="#000000"/> 	</g> 	 	<g id="_F13EFC86-6E9B-460E-A7E2-26694AA07DFDuserTask" transform="scale(0.7,0.7) translate(8,8)" display="inherit"> 		<path id="_F13EFC86-6E9B-460E-A7E2-26694AA07DFDframe15" oryx:anchors="top left" style="opacity:1;fill:#F4F6F7" stroke="#000000" d="M0.585,24.167h24.083v-7.833c0,0-2.333-3.917-7.083-5.167h-9.25    c-4.417,1.333-7.833,5.75-7.833,5.75L0.585,24.167z"/> 		<path id="_F13EFC86-6E9B-460E-A7E2-26694AA07DFDframe16" oryx:anchors="top left" style="opacity:1;fill:none" d="M 6 20 L 6 24" stroke="#000000"/> 		<path id="_F13EFC86-6E9B-460E-A7E2-26694AA07DFDframe17" oryx:anchors="top left" style="opacity:1;fill:none" d="M 20 20 L 20 24" stroke="#000000"/> 		<circle id="_F13EFC86-6E9B-460E-A7E2-26694AA07DFDframe18" oryx:anchors="top left" fill="black" cx="13.002" cy="5.916" r="5.417" stroke="#000000"/> 		<path id="_F13EFC86-6E9B-460E-A7E2-26694AA07DFDframe19" oryx:anchors="top left" style="opacity:1;fill:#F0EFF0;" stroke="#000000" d="M8.043,7.083c0,0,2.814-2.426,5.376-1.807s4.624-0.693,4.624-0.693    c0.25,1.688,0.042,3.75-1.458,5.584c0,0,1.083,0.75,1.083,1.5s0.125,1.875-1,3s-5.5,1.25-6.75,0S8.668,12.834,8.668,12    s0.583-1.25,1.25-1.917C8.835,9.5,7.419,7.708,8.043,7.083z"/> 	</g> 	 	<g id="_F13EFC86-6E9B-460E-A7E2-26694AA07DFDserviceTask" transform="scale(0.7,0.7) translate(8,8)" display="none"> 		<polygon oryx:anchors="top left" id="_F13EFC86-6E9B-460E-A7E2-26694AA07DFDframe20" style="opacity:1;fill:#ffffff" stroke="#000000" points="15.392,5.064 17.954,2.502 20.347,4.895 17.786,7.455     18.729,9.732 22.353,9.732 22.353,13.115 18.731,13.115 17.788,15.392 20.351,17.955 17.958,20.347 15.397,17.786 13.12,18.729     13.12,22.353 9.737,22.353 9.737,18.731 7.46,17.788 4.897,20.35 2.506,17.958 5.066,15.397 4.124,13.12 0.5,13.12 0.5,9.737     4.121,9.737 5.065,7.461 2.503,4.898 4.895,2.506 7.455,5.066 9.732,4.125 9.732,0.5 13.116,0.5 13.116,4.121 "/> 		<circle oryx:anchors="top left" id="_F13EFC86-6E9B-460E-A7E2-26694AA07DFDframe21" style="opacity:1;fill:none" stroke="#000000" cx="11.427" cy="11.426" r="3.714"/> 		<polygon oryx:anchors="top left" id="_F13EFC86-6E9B-460E-A7E2-26694AA07DFDframe22" style="opacity:1;fill:#ffffff" stroke="#000000" points="21.392,11.064 23.954,8.502 26.347,10.895 23.786,13.455     24.729,15.732 28.353,15.732 28.353,19.115 24.731,19.115 23.788,21.392 26.351,23.955 23.958,26.347 21.397,23.786 19.12,24.729     19.12,28.353 15.737,28.353 15.737,24.731 13.46,23.788 10.897,26.35 8.506,23.958 11.066,21.397 10.124,19.12 6.5,19.12     6.5,15.737 10.121,15.737 11.065,13.461 8.503,10.898 10.895,8.506 13.455,11.066 15.732,10.125 15.732,6.5 19.116,6.5     19.116,10.121 "/> 		<circle oryx:anchors="top left" id="_F13EFC86-6E9B-460E-A7E2-26694AA07DFDframe23" style="opacity:1;fill:none;" stroke="#000000" cx="17.427" cy="17.426" r="3.714"/> 	</g> 	 	<g id="_F13EFC86-6E9B-460E-A7E2-26694AA07DFDsendTask" display="none"> 		<path id="_F13EFC86-6E9B-460E-A7E2-26694AA07DFDstframe24" oryx:anchors="left top" stroke="#FFFFFF" fill="black" stroke-width="1" d="M8,11 L8,21 L24,21 L24,11 L16,17z"/> 		<path id="_F13EFC86-6E9B-460E-A7E2-26694AA07DFDstframe25" oryx:anchors="left top" stroke="#FFFFFF" fill="black" stroke-width="1" d="M7,10 L16,17 L25 10z"/> 	</g> 	 	<g id="_F13EFC86-6E9B-460E-A7E2-26694AA07DFDreceiveTask" display="none"> 		<path id="_F13EFC86-6E9B-460E-A7E2-26694AA07DFDframe26" oryx:anchors="left top" stroke="#000000" fill="none" stroke-width="1" d="M8,11 L8,21 L24,21 L24,11z M8,11 L16,17 L24,11"/> 	</g> 	 	<g id="_F13EFC86-6E9B-460E-A7E2-26694AA07DFDnone" display="inherit"/>  	<g id="_F13EFC86-6E9B-460E-A7E2-26694AA07DFDsequential" display="none">         <path oryx:anchors="bottom" fill="none" stroke="#000000" stroke-width="2" d="M46,76h10M46,72h10 M46,68h10" id="_F13EFC86-6E9B-460E-A7E2-26694AA07DFD__F13EFC86-6E9B-460E-A7E2-26694AA07DFD_20"/>     </g>   </g></g><g class="children" style="overflow:hidden"/><g class="edge"/></g><g class="controls"><g class="dockers"/><g class="magnets" transform="translate(375, 200)"><g pointer-events="all" display="none" transform="translate(-7, 12)"><circle cx="8" cy="8" r="4" stroke="none" fill="red" fill-opacity="0.3"/></g><g pointer-events="all" display="none" transform="translate(-7, 32)"><circle cx="8" cy="8" r="4" stroke="none" fill="red" fill-opacity="0.3"/></g><g pointer-events="all" display="none" transform="translate(-7, 52)"><circle cx="8" cy="8" r="4" stroke="none" fill="red" fill-opacity="0.3"/></g><g pointer-events="all" display="none" transform="translate(17, 71)"><circle cx="8" cy="8" r="4" stroke="none" fill="red" fill-opacity="0.3"/></g><g pointer-events="all" display="none" transform="translate(42, 71)"><circle cx="8" cy="8" r="4" stroke="none" fill="red" fill-opacity="0.3"/></g><g pointer-events="all" display="none" transform="translate(67, 71)"><circle cx="8" cy="8" r="4" stroke="none" fill="red" fill-opacity="0.3"/></g><g pointer-events="all" display="none" transform="translate(91, 12)"><circle cx="8" cy="8" r="4" stroke="none" fill="red" fill-opacity="0.3"/></g><g pointer-events="all" display="none" transform="translate(91, 32)"><circle cx="8" cy="8" r="4" stroke="none" fill="red" fill-opacity="0.3"/></g><g pointer-events="all" display="none" transform="translate(91, 52)"><circle cx="8" cy="8" r="4" stroke="none" fill="red" fill-opacity="0.3"/></g><g pointer-events="all" display="none" transform="translate(17, -7)"><circle cx="8" cy="8" r="4" stroke="none" fill="red" fill-opacity="0.3"/></g><g pointer-events="all" display="none" transform="translate(42, -7)"><circle cx="8" cy="8" r="4" stroke="none" fill="red" fill-opacity="0.3"/></g><g pointer-events="all" display="none" transform="translate(67, -7)"><circle cx="8" cy="8" r="4" stroke="none" fill="red" fill-opacity="0.3"/></g><g pointer-events="all" display="none" transform="translate(42, 32)"><circle cx="8" cy="8" r="4" stroke="none" fill="red" fill-opacity="0.3"/></g></g></g></g><g id="_902CB28C-44C3-413A-8CC1-76EB9803E5D0" bpmn2nodeid="_E18B893D-B455-4905-B3A7-63234994AC9F"><g class="stencils" transform="translate(660, 226)"><g class="me"><g pointer-events="fill" id="_902CB28C-44C3-413A-8CC1-76EB9803E5D0">      <defs id="_902CB28C-44C3-413A-8CC1-76EB9803E5D0__902CB28C-44C3-413A-8CC1-76EB9803E5D0_5"> 		<radialGradient id="_902CB28C-44C3-413A-8CC1-76EB9803E5D0background" cx="10%" cy="10%" r="100%" fx="10%" fy="10%"> 			<stop offset="0%" stop-color="#ffffff" stop-opacity="1" id="_902CB28C-44C3-413A-8CC1-76EB9803E5D0__902CB28C-44C3-413A-8CC1-76EB9803E5D0_6"/> 			<stop id="_902CB28C-44C3-413A-8CC1-76EB9803E5D0fill_el" offset="100%" stop-color="#ff6347" stop-opacity="1"/> 		</radialGradient> 	</defs> 	     <circle id="_902CB28C-44C3-413A-8CC1-76EB9803E5D0bg_frame" cx="14" cy="14" r="14" stroke="#000000" fill="url(#_902CB28C-44C3-413A-8CC1-76EB9803E5D0background) white" stroke-width="3"/> 	<text font-size="11" id="_902CB28C-44C3-413A-8CC1-76EB9803E5D0text_name" x="14" y="30" oryx:align="top center" stroke="black" stroke-width="0pt" letter-spacing="-0.01px" fill="#000000" text-anchor="middle" transform="rotate(0 14 30)" visibility="inherit" oryx:fontSize="11"/>   </g></g><g class="children" style="overflow:hidden"/><g class="edge"/></g><g class="controls"><g class="dockers"/><g class="magnets" transform="translate(660, 226)"><g pointer-events="all" display="none" transform="translate(6, 6)"><circle cx="8" cy="8" r="4" stroke="none" fill="red" fill-opacity="0.3"/></g></g></g></g><g id="_0D437458-2177-4AA5-B717-FDD06CB1A36A" bpmn2nodeid="_571BF1F7-85FD-4782-ABDE-C52FB4FF8AF2"><g class="stencils" transform="translate(540, 220)"><g class="me"><g id="_0D437458-2177-4AA5-B717-FDD06CB1A36A">        <defs id="_0D437458-2177-4AA5-B717-FDD06CB1A36A__0D437458-2177-4AA5-B717-FDD06CB1A36A_4"> 		<radialGradient id="_0D437458-2177-4AA5-B717-FDD06CB1A36Abackground" cx="10%" cy="10%" r="100%" fx="10%" fy="10%"> 			<stop offset="0%" stop-color="#ffffff" stop-opacity="1" id="_0D437458-2177-4AA5-B717-FDD06CB1A36A__0D437458-2177-4AA5-B717-FDD06CB1A36A_5"/> 			<stop id="_0D437458-2177-4AA5-B717-FDD06CB1A36Afill_el" offset="100%" stop-color="#f0e68c" stop-opacity="1"/> 		</radialGradient> 		<radialGradient id="_0D437458-2177-4AA5-B717-FDD06CB1A36Aborderbackground" cx="10%" cy="10%" r="100%" fx="10%" fy="10%"> 			<stop offset="0%" stop-color="#ffffff" stop-opacity="1" id="_0D437458-2177-4AA5-B717-FDD06CB1A36A__0D437458-2177-4AA5-B717-FDD06CB1A36A_6"/> 			<stop id="_0D437458-2177-4AA5-B717-FDD06CB1A36Afill_border" offset="100%" stop-color="#a67f00" stop-opacity="1" stroke="#a67f00"/> 		</radialGradient> 	</defs> 	     <path d=" M0 20.5  L20.5 0  L40 20.5  L20.5 40  z" id="_0D437458-2177-4AA5-B717-FDD06CB1A36Abg_frame" fill="url(#_0D437458-2177-4AA5-B717-FDD06CB1A36Abackground) white" style="stroke-width:1" stroke="#a67f00"/>     <g id="_0D437458-2177-4AA5-B717-FDD06CB1A36Aframe" stroke="#a67f00">       <path id="_0D437458-2177-4AA5-B717-FDD06CB1A36Aframe2" d=" M13.25 12.05  L17.25 12.05  L27.65 28.95  L23.75 28.95  z" style="stroke-width:1" stroke="#a67f00" fill="url(#_0D437458-2177-4AA5-B717-FDD06CB1A36Aborderbackground)"/>       <path id="_0D437458-2177-4AA5-B717-FDD06CB1A36Aframe3" d=" M13.25 28.95  L23.75 12.05  L27.65 12.05  L17.25 28.95  z" style="stroke-width:1" stroke="#a67f00" fill="url(#_0D437458-2177-4AA5-B717-FDD06CB1A36Aborderbackground)"/>     </g> 	 	<text id="_0D437458-2177-4AA5-B717-FDD06CB1A36Atext_name" x="30.5" y="30.5" oryx:align="left top" stroke-width="0pt" letter-spacing="-0.01px" fill="#000000" text-anchor="start" transform="rotate(0 30.5 30.5)" visibility="inherit" oryx:fontSize="12"/> 	   </g></g><g class="children" style="overflow:hidden"/><g class="edge"/></g><g class="controls"><g class="dockers"/><g class="magnets" transform="translate(540, 220)"><g pointer-events="all" display="none" transform="translate(12.5, 12.5)"><circle cx="8" cy="8" r="4" stroke="none" fill="red" fill-opacity="0.3"/></g></g></g></g><g id="_C6151358-4676-4999-B845-D8161E5B80CB" bpmn2nodeid="_604A30D2-A276-437D-AAF2-5F8D9B9F9F4D"><g class="stencils" transform="translate(270, 220)"><g class="me"><g id="_C6151358-4676-4999-B845-D8161E5B80CB">        <defs id="_C6151358-4676-4999-B845-D8161E5B80CB__C6151358-4676-4999-B845-D8161E5B80CB_4"> 		<radialGradient id="_C6151358-4676-4999-B845-D8161E5B80CBbackground" cx="10%" cy="10%" r="100%" fx="10%" fy="10%"> 			<stop offset="0%" stop-color="#ffffff" stop-opacity="1" id="_C6151358-4676-4999-B845-D8161E5B80CB__C6151358-4676-4999-B845-D8161E5B80CB_5"/> 			<stop id="_C6151358-4676-4999-B845-D8161E5B80CBfill_el" offset="100%" stop-color="#f0e68c" stop-opacity="1"/> 		</radialGradient> 		<radialGradient id="_C6151358-4676-4999-B845-D8161E5B80CBborderbackground" cx="10%" cy="10%" r="100%" fx="10%" fy="10%"> 			<stop offset="0%" stop-color="#ffffff" stop-opacity="1" id="_C6151358-4676-4999-B845-D8161E5B80CB__C6151358-4676-4999-B845-D8161E5B80CB_6"/> 			<stop id="_C6151358-4676-4999-B845-D8161E5B80CBfill_border" offset="100%" stop-color="#a67f00" stop-opacity="1" stroke="#a67f00"/> 		</radialGradient> 	</defs> 	     <path d=" M0 20.5  L20.5 0  L40 20.5  L20.5 40  z" id="_C6151358-4676-4999-B845-D8161E5B80CBbg_frame" fill="url(#_C6151358-4676-4999-B845-D8161E5B80CBbackground) white" style="stroke-width:1" stroke="#a67f00"/>     <g id="_C6151358-4676-4999-B845-D8161E5B80CBframe" stroke="#a67f00">       <path id="_C6151358-4676-4999-B845-D8161E5B80CBframe2" d=" M13.25 12.05  L17.25 12.05  L27.65 28.95  L23.75 28.95  z" style="stroke-width:1" stroke="#a67f00" fill="url(#_C6151358-4676-4999-B845-D8161E5B80CBborderbackground)"/>       <path id="_C6151358-4676-4999-B845-D8161E5B80CBframe3" d=" M13.25 28.95  L23.75 12.05  L27.65 12.05  L17.25 28.95  z" style="stroke-width:1" stroke="#a67f00" fill="url(#_C6151358-4676-4999-B845-D8161E5B80CBborderbackground)"/>     </g> 	 	<text id="_C6151358-4676-4999-B845-D8161E5B80CBtext_name" x="30.5" y="30.5" oryx:align="left top" stroke-width="0pt" letter-spacing="-0.01px" fill="#000000" text-anchor="start" transform="rotate(0 30.5 30.5)" visibility="inherit" oryx:fontSize="12"/> 	   </g></g><g class="children" style="overflow:hidden"/><g class="edge"/></g><g class="controls"><g class="dockers"/><g class="magnets" transform="translate(270, 220)"><g pointer-events="all" display="none" transform="translate(12.5, 12.5)"><circle cx="8" cy="8" r="4" stroke="none" fill="red" fill-opacity="0.3"/></g></g></g></g><g id="_7FAB2D96-EA9A-4D00-B66C-56CAC5601E2A" bpmn2nodeid="_467388C1-AFA6-4F06-B992-EBFD83F77E84"><g class="stencils" transform="translate(375, 75)"><g class="me"><g pointer-events="fill" oryx:minimumSize="50 40" id="_7FAB2D96-EA9A-4D00-B66C-56CAC5601E2A">   	<defs id="_7FAB2D96-EA9A-4D00-B66C-56CAC5601E2A__7FAB2D96-EA9A-4D00-B66C-56CAC5601E2A_17"> 		<radialGradient id="_7FAB2D96-EA9A-4D00-B66C-56CAC5601E2Abackground" cx="10%" cy="10%" r="100%" fx="10%" fy="10%"> 			<stop offset="0%" stop-color="#ffffff" stop-opacity="1" id="_7FAB2D96-EA9A-4D00-B66C-56CAC5601E2A__7FAB2D96-EA9A-4D00-B66C-56CAC5601E2A_18"/> 			<stop id="_7FAB2D96-EA9A-4D00-B66C-56CAC5601E2Afill_el" offset="100%" stop-color="#fafad2" stop-opacity="1"/> 		</radialGradient> 		<radialGradient id="_7FAB2D96-EA9A-4D00-B66C-56CAC5601E2Aborderbackground" cx="10%" cy="10%" r="100%" fx="10%" fy="10%"> 			<stop offset="0%" stop-color="#ffffff" stop-opacity="1" id="_7FAB2D96-EA9A-4D00-B66C-56CAC5601E2A__7FAB2D96-EA9A-4D00-B66C-56CAC5601E2A_19"/> 			<stop id="_7FAB2D96-EA9A-4D00-B66C-56CAC5601E2Afill_border" offset="100%" stop-color="#000000" stop-opacity="1" stroke="#000000"/> 		</radialGradient> 	</defs> 	 	<rect id="_7FAB2D96-EA9A-4D00-B66C-56CAC5601E2Atext_frame" oryx:anchors="bottom top right left" x="1" y="1" width="94" height="79" rx="10" ry="10" stroke="none" stroke-width="0" fill="none"/> 	<rect id="_7FAB2D96-EA9A-4D00-B66C-56CAC5601E2Abg_frame" oryx:resize="vertical horizontal" x="0" y="0" width="100" height="80" rx="10" ry="10" stroke="#000000" stroke-width="1" fill="url(#_7FAB2D96-EA9A-4D00-B66C-56CAC5601E2Abackground) #ffffcc"/> 		<text font-size="12" id="_7FAB2D96-EA9A-4D00-B66C-56CAC5601E2Atext_name" x="50" y="40" oryx:align="middle center" oryx:fittoelem="text_frame" stroke="black" text-anchor="middle" stroke-width="0pt" letter-spacing="-0.01px" fill="#000000" transform="rotate(0 50 40)" visibility="inherit" oryx:fontSize="12"><tspan x="50" y="40" dy="5">Ejecutar script</tspan></text>     <g id="_7FAB2D96-EA9A-4D00-B66C-56CAC5601E2AmanualTask" transform="scale(0.7,0.7) translate(8,8)" display="none">     	<path oryx:anchors="top left" id="_7FAB2D96-EA9A-4D00-B66C-56CAC5601E2Aframe" style="opacity:1;fill:none;fill-opacity:1;stroke-width:1" d="M0.5,3.751l4.083-3.25c0,0,11.166,0.083,12.083,0.083s-2.417,2.917-1.5,2.917     s11.667,0,12.584,0c1.166,1.708-0.168,3.167-0.834,3.667s0.875,1.917-1,4.417c-0.75,0.25,0.75,1.875-1.333,3.333     c-1.167,0.583,0.583,1.542-1.25,2.833c-1.167,0-20.833,0.083-20.833,0.083l-2-1.333V3.751z" stroke="#000000"/> 		<path id="_7FAB2D96-EA9A-4D00-B66C-56CAC5601E2Aframe2" oryx:anchors="top left" style="opacity:1;fill:none;stroke-width:2" d="M 13.5 7 L 27 7" stroke="#000000"/> 		<path id="_7FAB2D96-EA9A-4D00-B66C-56CAC5601E2Aframe3" oryx:anchors="top left" style="opacity:1;fill:none;stroke-width:2" d="M 13.5 11 L 26 11" stroke="#000000"/> 		<path id="_7FAB2D96-EA9A-4D00-B66C-56CAC5601E2Aframe4" oryx:anchors="top left" style="opacity:1;fill:none;stroke-width:1.5" d="M 14 14.5 L 25 14.5" stroke="#000000"/> 		<path id="_7FAB2D96-EA9A-4D00-B66C-56CAC5601E2Aframe5" oryx:anchors="top left" style="opacity:1;fill:none;stroke-width:1.5" d="M 8.2 3.1 L 15 3.1" stroke="#000000"/> 	</g> 	 	<g id="_7FAB2D96-EA9A-4D00-B66C-56CAC5601E2AbusinessRuleTask" transform="scale(0.7,0.7) translate(8,8)" display="none"> 		<rect id="_7FAB2D96-EA9A-4D00-B66C-56CAC5601E2Aframe6" oryx:anchors="top left" x="0" y="0" width="22" height="4" style="opacity:1;fill:#B3B1B3;fill-opacity:1;" stroke="#000000"/> 		<rect id="_7FAB2D96-EA9A-4D00-B66C-56CAC5601E2Aframe7" oryx:anchors="top left" x="0" y="4" style="opacity:1;fill:none;" width="22" height="12" stroke="#000000"/> 		<path id="_7FAB2D96-EA9A-4D00-B66C-56CAC5601E2Aframe8" oryx:anchors="top left" style="opacity:1;fill:none;" d="M 0 10 L 22 10" stroke="#000000"/> 		<path id="_7FAB2D96-EA9A-4D00-B66C-56CAC5601E2Aframe9" oryx:anchors="top left" style="opacity:1; fill:none;" d="M 7 4 L 7 16" stroke="#000000"/> 	</g> 	 	<g id="_7FAB2D96-EA9A-4D00-B66C-56CAC5601E2AscriptTask" transform="scale(0.7,0.7) translate(8,8)" display="inherit"> 		<path oryx:anchors="top left" id="_7FAB2D96-EA9A-4D00-B66C-56CAC5601E2Aframe10" style="opacity:1;fill:none;" stroke="#000000" d="M6.402,0.5h14.5c0,0-5.833,2.833-5.833,5.583s4.417,6,4.417,9.167    s-4.167,5.083-4.167,5.083H0.235c0,0,5-2.667,5-5s-4.583-6.75-4.583-9.25S6.402,0.5,6.402,0.5z"/> 		<path oryx:anchors="top left" id="_7FAB2D96-EA9A-4D00-B66C-56CAC5601E2Aframe11" style="opacity:1;fill:none;stroke-width:1.5" d="M 3.5 4.5 L 13.5 4.5" stroke="#000000"/> 		<path oryx:anchors="top left" id="_7FAB2D96-EA9A-4D00-B66C-56CAC5601E2Aframe12" style="opacity:1;fill:none;stroke-width:1.5" d="M 3.8 8.5 L 13.8 8.5" stroke="#000000"/> 		<path oryx:anchors="top left" id="_7FAB2D96-EA9A-4D00-B66C-56CAC5601E2Aframe13" style="opacity:1;fill:none;stroke-width:1.5" d="M 6.3 12.5 L 16.3 12.5" stroke="#000000"/> 		<path oryx:anchors="top left" id="_7FAB2D96-EA9A-4D00-B66C-56CAC5601E2Aframe14" style="opacity:1;fill:none;stroke-width:1.5" d="M 6.5 16.5 L 16.5 16.5" stroke="#000000"/> 	</g> 	 	<g id="_7FAB2D96-EA9A-4D00-B66C-56CAC5601E2AuserTask" transform="scale(0.7,0.7) translate(8,8)" display="none"> 		<path id="_7FAB2D96-EA9A-4D00-B66C-56CAC5601E2Aframe15" oryx:anchors="top left" style="opacity:1;fill:#F4F6F7" stroke="#000000" d="M0.585,24.167h24.083v-7.833c0,0-2.333-3.917-7.083-5.167h-9.25    c-4.417,1.333-7.833,5.75-7.833,5.75L0.585,24.167z"/> 		<path id="_7FAB2D96-EA9A-4D00-B66C-56CAC5601E2Aframe16" oryx:anchors="top left" style="opacity:1;fill:none" d="M 6 20 L 6 24" stroke="#000000"/> 		<path id="_7FAB2D96-EA9A-4D00-B66C-56CAC5601E2Aframe17" oryx:anchors="top left" style="opacity:1;fill:none" d="M 20 20 L 20 24" stroke="#000000"/> 		<circle id="_7FAB2D96-EA9A-4D00-B66C-56CAC5601E2Aframe18" oryx:anchors="top left" fill="black" cx="13.002" cy="5.916" r="5.417" stroke="#000000"/> 		<path id="_7FAB2D96-EA9A-4D00-B66C-56CAC5601E2Aframe19" oryx:anchors="top left" style="opacity:1;fill:#F0EFF0;" stroke="#000000" d="M8.043,7.083c0,0,2.814-2.426,5.376-1.807s4.624-0.693,4.624-0.693    c0.25,1.688,0.042,3.75-1.458,5.584c0,0,1.083,0.75,1.083,1.5s0.125,1.875-1,3s-5.5,1.25-6.75,0S8.668,12.834,8.668,12    s0.583-1.25,1.25-1.917C8.835,9.5,7.419,7.708,8.043,7.083z"/> 	</g> 	 	<g id="_7FAB2D96-EA9A-4D00-B66C-56CAC5601E2AserviceTask" transform="scale(0.7,0.7) translate(8,8)" display="none"> 		<polygon oryx:anchors="top left" id="_7FAB2D96-EA9A-4D00-B66C-56CAC5601E2Aframe20" style="opacity:1;fill:#ffffff" stroke="#000000" points="15.392,5.064 17.954,2.502 20.347,4.895 17.786,7.455     18.729,9.732 22.353,9.732 22.353,13.115 18.731,13.115 17.788,15.392 20.351,17.955 17.958,20.347 15.397,17.786 13.12,18.729     13.12,22.353 9.737,22.353 9.737,18.731 7.46,17.788 4.897,20.35 2.506,17.958 5.066,15.397 4.124,13.12 0.5,13.12 0.5,9.737     4.121,9.737 5.065,7.461 2.503,4.898 4.895,2.506 7.455,5.066 9.732,4.125 9.732,0.5 13.116,0.5 13.116,4.121 "/> 		<circle oryx:anchors="top left" id="_7FAB2D96-EA9A-4D00-B66C-56CAC5601E2Aframe21" style="opacity:1;fill:none" stroke="#000000" cx="11.427" cy="11.426" r="3.714"/> 		<polygon oryx:anchors="top left" id="_7FAB2D96-EA9A-4D00-B66C-56CAC5601E2Aframe22" style="opacity:1;fill:#ffffff" stroke="#000000" points="21.392,11.064 23.954,8.502 26.347,10.895 23.786,13.455     24.729,15.732 28.353,15.732 28.353,19.115 24.731,19.115 23.788,21.392 26.351,23.955 23.958,26.347 21.397,23.786 19.12,24.729     19.12,28.353 15.737,28.353 15.737,24.731 13.46,23.788 10.897,26.35 8.506,23.958 11.066,21.397 10.124,19.12 6.5,19.12     6.5,15.737 10.121,15.737 11.065,13.461 8.503,10.898 10.895,8.506 13.455,11.066 15.732,10.125 15.732,6.5 19.116,6.5     19.116,10.121 "/> 		<circle oryx:anchors="top left" id="_7FAB2D96-EA9A-4D00-B66C-56CAC5601E2Aframe23" style="opacity:1;fill:none;" stroke="#000000" cx="17.427" cy="17.426" r="3.714"/> 	</g> 	 	<g id="_7FAB2D96-EA9A-4D00-B66C-56CAC5601E2AsendTask" display="none"> 		<path id="_7FAB2D96-EA9A-4D00-B66C-56CAC5601E2Astframe24" oryx:anchors="left top" stroke="#FFFFFF" fill="black" stroke-width="1" d="M8,11 L8,21 L24,21 L24,11 L16,17z"/> 		<path id="_7FAB2D96-EA9A-4D00-B66C-56CAC5601E2Astframe25" oryx:anchors="left top" stroke="#FFFFFF" fill="black" stroke-width="1" d="M7,10 L16,17 L25 10z"/> 	</g> 	 	<g id="_7FAB2D96-EA9A-4D00-B66C-56CAC5601E2AreceiveTask" display="none"> 		<path id="_7FAB2D96-EA9A-4D00-B66C-56CAC5601E2Aframe26" oryx:anchors="left top" stroke="#000000" fill="none" stroke-width="1" d="M8,11 L8,21 L24,21 L24,11z M8,11 L16,17 L24,11"/> 	</g> 	 	<g id="_7FAB2D96-EA9A-4D00-B66C-56CAC5601E2Anone" display="inherit"/>  	<g id="_7FAB2D96-EA9A-4D00-B66C-56CAC5601E2Asequential" display="none">         <path oryx:anchors="bottom" fill="none" stroke="#000000" stroke-width="2" d="M46,76h10M46,72h10 M46,68h10" id="_7FAB2D96-EA9A-4D00-B66C-56CAC5601E2A__7FAB2D96-EA9A-4D00-B66C-56CAC5601E2A_20"/>     </g>   </g></g><g class="children" style="overflow:hidden"/><g class="edge"/></g><g class="controls"><g class="dockers"/><g class="magnets" transform="translate(375, 75)"><g pointer-events="all" display="none" transform="translate(-7, 12)"><circle cx="8" cy="8" r="4" stroke="none" fill="red" fill-opacity="0.3"/></g><g pointer-events="all" display="none" transform="translate(-7, 32)"><circle cx="8" cy="8" r="4" stroke="none" fill="red" fill-opacity="0.3"/></g><g pointer-events="all" display="none" transform="translate(-7, 52)"><circle cx="8" cy="8" r="4" stroke="none" fill="red" fill-opacity="0.3"/></g><g pointer-events="all" display="none" transform="translate(17, 71)"><circle cx="8" cy="8" r="4" stroke="none" fill="red" fill-opacity="0.3"/></g><g pointer-events="all" display="none" transform="translate(42, 71)"><circle cx="8" cy="8" r="4" stroke="none" fill="red" fill-opacity="0.3"/></g><g pointer-events="all" display="none" transform="translate(67, 71)"><circle cx="8" cy="8" r="4" stroke="none" fill="red" fill-opacity="0.3"/></g><g pointer-events="all" display="none" transform="translate(91, 12)"><circle cx="8" cy="8" r="4" stroke="none" fill="red" fill-opacity="0.3"/></g><g pointer-events="all" display="none" transform="translate(91, 32)"><circle cx="8" cy="8" r="4" stroke="none" fill="red" fill-opacity="0.3"/></g><g pointer-events="all" display="none" transform="translate(91, 52)"><circle cx="8" cy="8" r="4" stroke="none" fill="red" fill-opacity="0.3"/></g><g pointer-events="all" display="none" transform="translate(17, -7)"><circle cx="8" cy="8" r="4" stroke="none" fill="red" fill-opacity="0.3"/></g><g pointer-events="all" display="none" transform="translate(42, -7)"><circle cx="8" cy="8" r="4" stroke="none" fill="red" fill-opacity="0.3"/></g><g pointer-events="all" display="none" transform="translate(67, -7)"><circle cx="8" cy="8" r="4" stroke="none" fill="red" fill-opacity="0.3"/></g><g pointer-events="all" display="none" transform="translate(42, 32)"><circle cx="8" cy="8" r="4" stroke="none" fill="red" fill-opacity="0.3"/></g></g></g></g></g><g class="edge"><g id="_B7CE174B-BF4C-4A76-B89C-87CDB61C6CD6" bpmn2nodeid="_251250DA-0E93-4790-902A-4F64B07DE26A"><g class="stencils"><g class="me"><g pointer-events="painted" bpmn2nodeid="_C0481483-573F-4681-8FCC-1D2486FA95F6"><path id="_B7CE174B-BF4C-4A76-B89C-87CDB61C6CD6_1" d="M180.6484375 240L270.4453125 240 " stroke="#000000" fill="none" stroke-width="2" stroke-linecap="round" stroke-linejoin="round" marker-start="url(#_B7CE174B-BF4C-4A76-B89C-87CDB61C6CD6start)" marker-end="url(#_B7CE174B-BF4C-4A76-B89C-87CDB61C6CD6end)"/></g><text id="_B7CE174B-BF4C-4A76-B89C-87CDB61C6CD6text_name" font-size="12" x="194.6484375" y="226" oryx:edgePosition="startTop" stroke-width="0pt" letter-spacing="-0.01px" fill="#000000" text-anchor="start" transform="rotate(360 180.6484375 240)" visibility="inherit" oryx:fontSize="12"/></g><g class="children" style="overflow:hidden"/><g class="edge"/></g><g class="controls"><g class="dockers"/><g class="magnets"/></g></g><g id="_FBF692FF-9FA1-4423-BB08-1BEC853285A3" bpmn2nodeid="_E11C90D9-20DA-4B70-92D4-70A0CDBD65B5"><g class="stencils"><g class="me"><g pointer-events="painted" bpmn2nodeid="_363E0B54-C398-4F8C-B9D1-A395FFB54352"><path id="_FBF692FF-9FA1-4423-BB08-1BEC853285A3_1" d="M579.703125 240L659.640625 240 " stroke="#000000" fill="none" stroke-width="2" stroke-linecap="round" stroke-linejoin="round" marker-start="url(#_FBF692FF-9FA1-4423-BB08-1BEC853285A3start)" marker-end="url(#_FBF692FF-9FA1-4423-BB08-1BEC853285A3end)"/></g><text id="_FBF692FF-9FA1-4423-BB08-1BEC853285A3text_name" font-size="12" x="593.703125" y="226" oryx:edgePosition="startTop" stroke-width="0pt" letter-spacing="-0.01px" fill="#000000" text-anchor="start" transform="rotate(360 579.703125 240)" visibility="inherit" oryx:fontSize="12"/></g><g class="children" style="overflow:hidden"/><g class="edge"/></g><g class="controls"><g class="dockers"/><g class="magnets"/></g></g><g id="_34FBD464-D72C-4B5E-AEE7-7ADD4011BFC3" bpmn2nodeid="_D7583605-A7D9-4382-90DA-8FE0D997E909"><g class="stencils"><g class="me"><g pointer-events="painted" bpmn2nodeid="_D1C9B396-D087-4182-B67C-FEAF0175A760"><path id="_34FBD464-D72C-4B5E-AEE7-7ADD4011BFC3_1" d="M560 220.4453125L560 115 L475.5703125 115 " stroke="#000000" fill="none" stroke-width="2" stroke-linecap="round" stroke-linejoin="round" marker-start="url(#_34FBD464-D72C-4B5E-AEE7-7ADD4011BFC3start)" marker-end="url(#_34FBD464-D72C-4B5E-AEE7-7ADD4011BFC3end)"/></g><text id="_34FBD464-D72C-4B5E-AEE7-7ADD4011BFC3text_name" font-size="12" x="574" y="206.4453125" oryx:edgePosition="startTop" stroke-width="0pt" letter-spacing="-0.01px" fill="#000000" text-anchor="start" transform="rotate(270 560 220.4453125)" visibility="inherit" oryx:fontSize="12"/></g><g class="children" style="overflow:hidden"/><g class="edge"/></g><g class="controls"><g class="dockers"/><g class="magnets"/></g></g><g id="_5AB8500C-0344-44FD-86A1-837F67B8644C" bpmn2nodeid="_F303799F-98E4-4A22-B01F-FAF3D6AE11E6"><g class="stencils"><g class="me"><g pointer-events="painted" bpmn2nodeid="_4BD9A2CC-D42C-494F-9AE8-C57CD086A178"><path id="_5AB8500C-0344-44FD-86A1-837F67B8644C_1" d="M309.984375 240L374.4296875 240 " stroke="#000000" fill="none" stroke-width="2" stroke-linecap="round" stroke-linejoin="round" marker-start="url(#_5AB8500C-0344-44FD-86A1-837F67B8644Cstart)" marker-end="url(#_5AB8500C-0344-44FD-86A1-837F67B8644Cend)"/></g><text id="_5AB8500C-0344-44FD-86A1-837F67B8644Ctext_name" font-size="12" x="323.984375" y="226" oryx:edgePosition="startTop" stroke-width="0pt" letter-spacing="-0.01px" fill="#000000" text-anchor="start" transform="rotate(360 309.984375 240)" visibility="inherit" oryx:fontSize="12"/></g><g class="children" style="overflow:hidden"/><g class="edge"/></g><g class="controls"><g class="dockers"/><g class="magnets"/></g></g><g id="_0C4CFD32-F23F-4A3D-AF6A-BBE2962F0FB0" bpmn2nodeid="_246C5DA4-3ADD-4D25-A765-A491F85F250D"><g class="stencils"><g class="me"><g pointer-events="painted" bpmn2nodeid="_072E1D8B-23B8-476D-8A94-DBFAC2D133BB"><path id="_0C4CFD32-F23F-4A3D-AF6A-BBE2962F0FB0_1" d="M374.4296875 115L290 115 L290 220.4453125 " stroke="#000000" fill="none" stroke-width="2" stroke-linecap="round" stroke-linejoin="round" marker-start="url(#_0C4CFD32-F23F-4A3D-AF6A-BBE2962F0FB0start)" marker-end="url(#_0C4CFD32-F23F-4A3D-AF6A-BBE2962F0FB0end)"/></g><text id="_0C4CFD32-F23F-4A3D-AF6A-BBE2962F0FB0text_name" font-size="12" x="360.4296875" y="101" oryx:edgePosition="startTop" stroke-width="0pt" letter-spacing="-0.01px" fill="#000000" text-anchor="end" transform="rotate(0 374.4296875 115)" visibility="inherit" oryx:fontSize="12"/></g><g class="children" style="overflow:hidden"/><g class="edge"/></g><g class="controls"><g class="dockers"/><g class="magnets"/></g></g><g id="_AC2CE5D7-E2EC-4896-AE7D-0ED8AAD09710" bpmn2nodeid="_59CCE68D-9399-4575-BB8E-A18C6EF9B3B1"><g class="stencils"><g class="me"><g pointer-events="painted" bpmn2nodeid="_CD4D23F0-0CC9-436D-BD1B-F781EE1A53D4"><path id="_AC2CE5D7-E2EC-4896-AE7D-0ED8AAD09710_1" d="M475.5703125 240L540.015625 240 " stroke="#000000" fill="none" stroke-width="2" stroke-linecap="round" stroke-linejoin="round" marker-start="url(#_AC2CE5D7-E2EC-4896-AE7D-0ED8AAD09710start)" marker-end="url(#_AC2CE5D7-E2EC-4896-AE7D-0ED8AAD09710end)"/></g><text id="_AC2CE5D7-E2EC-4896-AE7D-0ED8AAD09710text_name" font-size="12" x="489.5703125" y="226" oryx:edgePosition="startTop" stroke-width="0pt" letter-spacing="-0.01px" fill="#000000" text-anchor="start" transform="rotate(360 475.5703125 240)" visibility="inherit" oryx:fontSize="12"/></g><g class="children" style="overflow:hidden"/><g class="edge"/></g><g class="controls"><g class="dockers"/><g class="magnets"/></g></g></g><text id="_2B35F053-02D5-44C1-8BA1-B21F110A4F83" style="stroke-width:1;fill:rgb(177,194,214);font-family:arial;font-weight:bold" font-size="12" onclick="ORYX.Plugins.CanvasTitle.openTextualAnalysis()" onmouseover="ORYX.Plugins.CanvasTitle.addToolTip('_2B35F053-02D5-44C1-8BA1-B21F110A4F83')" transform="translate(10, 20)">partOffice v.1.0 (Docux.partOffice)</text></g></g></svg>