<svg xmlns="http://www.w3.org/2000/svg" xmlns:oryx="http://oryx-editor.org" id="_CC7932E0-AC9F-47F7-8A66-FA39A61E14D1" width="714" height="321" xmlns:xlink="http://www.w3.org/1999/xlink" xmlns:svg="http://www.w3.org/2000/svg"><defs><marker id="_0E23DF2B-34E7-41C7-991F-63DF9DF31332start" refX="1" refY="5" markerUnits="userSpaceOnUse" markerWidth="17" markerHeight="11" orient="auto" fill="#000000" stroke="#000000"> 	  		<path id="_0E23DF2B-34E7-41C7-991F-63DF9DF31332conditional" d="M 0 5 L 8 0 L 16 5 L 8 10 L 0 5" fill="white" stroke="#000000" stroke-width="1" display="none"/> 			<path id="_0E23DF2B-34E7-41C7-991F-63DF9DF31332default" d="M 5 0 L 11 10" fill="white" stroke="#000000" stroke-width="1" display="none"/> 	  	</marker><marker id="_0E23DF2B-34E7-41C7-991F-63DF9DF31332end" refX="15" refY="6" markerUnits="userSpaceOnUse" markerWidth="15" markerHeight="12" orient="auto" fill="#000000" stroke="#000000"> 	  		<path id="_0E23DF2B-34E7-41C7-991F-63DF9DF31332frame2" d="M 0 1 L 15 6 L 0 11z" fill="#000000" stroke="#000000" stroke-linejoin="round" stroke-width="2"/> 	  	</marker><marker id="_1D3DE6B3-E44B-463A-8D33-10939023C8C7start" refX="1" refY="5" markerUnits="userSpaceOnUse" markerWidth="17" markerHeight="11" orient="auto" fill="#000000" stroke="#000000"> 	  		<path id="_1D3DE6B3-E44B-463A-8D33-10939023C8C7conditional" d="M 0 5 L 8 0 L 16 5 L 8 10 L 0 5" fill="white" stroke="#000000" stroke-width="1" display="none"/> 			<path id="_1D3DE6B3-E44B-463A-8D33-10939023C8C7default" d="M 5 0 L 11 10" fill="white" stroke="#000000" stroke-width="1" display="none"/> 	  	</marker><marker id="_1D3DE6B3-E44B-463A-8D33-10939023C8C7end" refX="15" refY="6" markerUnits="userSpaceOnUse" markerWidth="15" markerHeight="12" orient="auto" fill="#000000" stroke="#000000"> 	  		<path id="_1D3DE6B3-E44B-463A-8D33-10939023C8C7frame2" d="M 0 1 L 15 6 L 0 11z" fill="#000000" stroke="#000000" stroke-linejoin="round" stroke-width="2"/> 	  	</marker><marker id="_A5E0FB53-B1F5-443C-ABBD-C27A7B6D1637start" refX="1" refY="5" markerUnits="userSpaceOnUse" markerWidth="17" markerHeight="11" orient="auto" fill="#000000" stroke="#000000"> 	  		<path id="_A5E0FB53-B1F5-443C-ABBD-C27A7B6D1637conditional" d="M 0 5 L 8 0 L 16 5 L 8 10 L 0 5" fill="white" stroke="#000000" stroke-width="1" display="none"/> 			<path id="_A5E0FB53-B1F5-443C-ABBD-C27A7B6D1637default" d="M 5 0 L 11 10" fill="white" stroke="#000000" stroke-width="1" display="none"/> 	  	</marker><marker id="_A5E0FB53-B1F5-443C-ABBD-C27A7B6D1637end" refX="15" refY="6" markerUnits="userSpaceOnUse" markerWidth="15" markerHeight="12" orient="auto" fill="#000000" stroke="#000000"> 	  		<path id="_A5E0FB53-B1F5-443C-ABBD-C27A7B6D1637frame2" d="M 0 1 L 15 6 L 0 11z" fill="#000000" stroke="#000000" stroke-linejoin="round" stroke-width="2"/> 	  	</marker><marker id="_C2F0CA1D-6D12-473B-8678-8A89B203FC7Astart" refX="1" refY="5" markerUnits="userSpaceOnUse" markerWidth="17" markerHeight="11" orient="auto" fill="#000000" stroke="#000000"> 	  		<path id="_C2F0CA1D-6D12-473B-8678-8A89B203FC7Aconditional" d="M 0 5 L 8 0 L 16 5 L 8 10 L 0 5" fill="white" stroke="#000000" stroke-width="1" display="none"/> 			<path id="_C2F0CA1D-6D12-473B-8678-8A89B203FC7Adefault" d="M 5 0 L 11 10" fill="white" stroke="#000000" stroke-width="1" display="none"/> 	  	</marker><marker id="_C2F0CA1D-6D12-473B-8678-8A89B203FC7Aend" refX="15" refY="6" markerUnits="userSpaceOnUse" markerWidth="15" markerHeight="12" orient="auto" fill="#000000" stroke="#000000"> 	  		<path id="_C2F0CA1D-6D12-473B-8678-8A89B203FC7Aframe2" d="M 0 1 L 15 6 L 0 11z" fill="#000000" stroke="#000000" stroke-linejoin="round" stroke-width="2"/> 	  	</marker><marker id="_63DFC5C5-3CC9-4548-9FD9-961DEAA2B054start" refX="1" refY="5" markerUnits="userSpaceOnUse" markerWidth="17" markerHeight="11" orient="auto" fill="#000000" stroke="#000000"> 	  		<path id="_63DFC5C5-3CC9-4548-9FD9-961DEAA2B054conditional" d="M 0 5 L 8 0 L 16 5 L 8 10 L 0 5" fill="white" stroke="#000000" stroke-width="1" display="none"/> 			<path id="_63DFC5C5-3CC9-4548-9FD9-961DEAA2B054default" d="M 5 0 L 11 10" fill="white" stroke="#000000" stroke-width="1" display="none"/> 	  	</marker><marker id="_63DFC5C5-3CC9-4548-9FD9-961DEAA2B054end" refX="15" refY="6" markerUnits="userSpaceOnUse" markerWidth="15" markerHeight="12" orient="auto" fill="#000000" stroke="#000000"> 	  		<path id="_63DFC5C5-3CC9-4548-9FD9-961DEAA2B054frame2" d="M 0 1 L 15 6 L 0 11z" fill="#000000" stroke="#000000" stroke-linejoin="round" stroke-width="2"/> 	  	</marker><marker id="_22DCB16F-0C18-4166-9BA8-9B5731A94EC1start" refX="1" refY="5" markerUnits="userSpaceOnUse" markerWidth="17" markerHeight="11" orient="auto" fill="#000000" stroke="#000000"> 	  		<path id="_22DCB16F-0C18-4166-9BA8-9B5731A94EC1conditional" d="M 0 5 L 8 0 L 16 5 L 8 10 L 0 5" fill="white" stroke="#000000" stroke-width="1" display="none"/> 			<path id="_22DCB16F-0C18-4166-9BA8-9B5731A94EC1default" d="M 5 0 L 11 10" fill="white" stroke="#000000" stroke-width="1" display="none"/> 	  	</marker><marker id="_22DCB16F-0C18-4166-9BA8-9B5731A94EC1end" refX="15" refY="6" markerUnits="userSpaceOnUse" markerWidth="15" markerHeight="12" orient="auto" fill="#000000" stroke="#000000"> 	  		<path id="_22DCB16F-0C18-4166-9BA8-9B5731A94EC1frame2" d="M 0 1 L 15 6 L 0 11z" fill="#000000" stroke="#000000" stroke-linejoin="round" stroke-width="2"/> 	  	</marker></defs><g stroke="none" font-family="Verdana, sans-serif" font-size-adjust="none" font-style="normal" font-variant="normal" font-weight="normal" line-heigth="normal" font-size="12"><g class="stencils" transform="translate(16, 16)"><g class="me"/><g class="children"><g id="_1BA680A8-088B-416D-98A2-BBC205228052" bpmn2nodeid="processStartEvent"><g class="stencils" transform="translate(180, 225)"><g class="me"><g pointer-events="fill" id="_1BA680A8-088B-416D-98A2-BBC205228052">        <defs id="_1BA680A8-088B-416D-98A2-BBC205228052__1BA680A8-088B-416D-98A2-BBC205228052_5"> 		<radialGradient id="_1BA680A8-088B-416D-98A2-BBC205228052background" cx="10%" cy="10%" r="100%" fx="10%" fy="10%"> 			<stop offset="0%" stop-color="#ffffff" stop-opacity="1" id="_1BA680A8-088B-416D-98A2-BBC205228052__1BA680A8-088B-416D-98A2-BBC205228052_6"/> 			<stop id="_1BA680A8-088B-416D-98A2-BBC205228052fill_el" offset="100%" stop-color="#9acd32" stop-opacity="1"/> 		</radialGradient> 	</defs> 	     <circle id="_1BA680A8-088B-416D-98A2-BBC205228052bg_frame" cx="15" cy="15" r="15" stroke="#000000" fill="url(#_1BA680A8-088B-416D-98A2-BBC205228052background) white" stroke-width="1" style="stroke-dasharray: 5.5, 3"/>      <circle id="_1BA680A8-088B-416D-98A2-BBC205228052frame" cx="15" cy="15" r="15" stroke="#000000" fill="none" stroke-width="1" display="inherit"/>  	<text font-size="11" id="_1BA680A8-088B-416D-98A2-BBC205228052text_name" x="15" y="32" oryx:align="top center" stroke="black" stroke-width="0pt" letter-spacing="-0.01px" fill="#000000" text-anchor="middle" transform="rotate(0 15 32)" visibility="inherit" oryx:fontSize="11"/>   </g></g><g class="children" style="overflow:hidden"/><g class="edge"/></g><g class="controls"><g class="dockers"/><g class="magnets" transform="translate(180, 225)"><g pointer-events="all" display="none" transform="translate(7, 7)"><circle cx="8" cy="8" r="4" stroke="none" fill="red" fill-opacity="0.3"/></g></g></g></g><g id="_0AE4378E-9002-40C6-9329-C6EED9047640" bpmn2nodeid="_A4127042-86B4-4A34-A4C6-C3B21B5CC1B2"><g class="stencils" transform="translate(375, 200)"><g class="me"><g pointer-events="fill" oryx:minimumSize="50 40" id="_0AE4378E-9002-40C6-9329-C6EED9047640">   	<defs id="_0AE4378E-9002-40C6-9329-C6EED9047640__0AE4378E-9002-40C6-9329-C6EED9047640_17"> 		<radialGradient id="_0AE4378E-9002-40C6-9329-C6EED9047640background" cx="10%" cy="10%" r="100%" fx="10%" fy="10%"> 			<stop offset="0%" stop-color="#ffffff" stop-opacity="1" id="_0AE4378E-9002-40C6-9329-C6EED9047640__0AE4378E-9002-40C6-9329-C6EED9047640_18"/> 			<stop id="_0AE4378E-9002-40C6-9329-C6EED9047640fill_el" offset="100%" stop-color="#fafad2" stop-opacity="1"/> 		</radialGradient> 		<radialGradient id="_0AE4378E-9002-40C6-9329-C6EED9047640borderbackground" cx="10%" cy="10%" r="100%" fx="10%" fy="10%"> 			<stop offset="0%" stop-color="#ffffff" stop-opacity="1" id="_0AE4378E-9002-40C6-9329-C6EED9047640__0AE4378E-9002-40C6-9329-C6EED9047640_19"/> 			<stop id="_0AE4378E-9002-40C6-9329-C6EED9047640fill_border" offset="100%" stop-color="#000000" stop-opacity="1" stroke="#000000"/> 		</radialGradient> 	</defs> 	 	<rect id="_0AE4378E-9002-40C6-9329-C6EED9047640text_frame" oryx:anchors="bottom top right left" x="1" y="1" width="94" height="79" rx="10" ry="10" stroke="none" stroke-width="0" fill="none"/> 	<rect id="_0AE4378E-9002-40C6-9329-C6EED9047640bg_frame" oryx:resize="vertical horizontal" x="0" y="0" width="100" height="80" rx="10" ry="10" stroke="#000000" stroke-width="1" fill="url(#_0AE4378E-9002-40C6-9329-C6EED9047640background) #ffffcc"/> 		<text font-size="12" id="_0AE4378E-9002-40C6-9329-C6EED9047640text_name" x="50" y="40" oryx:align="middle center" oryx:fittoelem="text_frame" stroke="black" text-anchor="middle" stroke-width="0pt" letter-spacing="-0.01px" fill="#000000" transform="rotate(0 50 40)" visibility="inherit" oryx:fontSize="12"><tspan x="50" y="40" dy="-1" id="ext-gen633">Elaborar </tspan><tspan x="50" y="40" dy="11" id="ext-gen612">Documento</tspan></text>     <g id="_0AE4378E-9002-40C6-9329-C6EED9047640manualTask" transform="scale(0.7,0.7) translate(8,8)" display="none">     	<path oryx:anchors="top left" id="_0AE4378E-9002-40C6-9329-C6EED9047640frame" style="opacity:1;fill:none;fill-opacity:1;stroke-width:1" d="M0.5,3.751l4.083-3.25c0,0,11.166,0.083,12.083,0.083s-2.417,2.917-1.5,2.917     s11.667,0,12.584,0c1.166,1.708-0.168,3.167-0.834,3.667s0.875,1.917-1,4.417c-0.75,0.25,0.75,1.875-1.333,3.333     c-1.167,0.583,0.583,1.542-1.25,2.833c-1.167,0-20.833,0.083-20.833,0.083l-2-1.333V3.751z" stroke="#000000"/> 		<path id="_0AE4378E-9002-40C6-9329-C6EED9047640frame2" oryx:anchors="top left" style="opacity:1;fill:none;stroke-width:2" d="M 13.5 7 L 27 7" stroke="#000000"/> 		<path id="_0AE4378E-9002-40C6-9329-C6EED9047640frame3" oryx:anchors="top left" style="opacity:1;fill:none;stroke-width:2" d="M 13.5 11 L 26 11" stroke="#000000"/> 		<path id="_0AE4378E-9002-40C6-9329-C6EED9047640frame4" oryx:anchors="top left" style="opacity:1;fill:none;stroke-width:1.5" d="M 14 14.5 L 25 14.5" stroke="#000000"/> 		<path id="_0AE4378E-9002-40C6-9329-C6EED9047640frame5" oryx:anchors="top left" style="opacity:1;fill:none;stroke-width:1.5" d="M 8.2 3.1 L 15 3.1" stroke="#000000"/> 	</g> 	 	<g id="_0AE4378E-9002-40C6-9329-C6EED9047640businessRuleTask" transform="scale(0.7,0.7) translate(8,8)" display="none"> 		<rect id="_0AE4378E-9002-40C6-9329-C6EED9047640frame6" oryx:anchors="top left" x="0" y="0" width="22" height="4" style="opacity:1;fill:#B3B1B3;fill-opacity:1;" stroke="#000000"/> 		<rect id="_0AE4378E-9002-40C6-9329-C6EED9047640frame7" oryx:anchors="top left" x="0" y="4" style="opacity:1;fill:none;" width="22" height="12" stroke="#000000"/> 		<path id="_0AE4378E-9002-40C6-9329-C6EED9047640frame8" oryx:anchors="top left" style="opacity:1;fill:none;" d="M 0 10 L 22 10" stroke="#000000"/> 		<path id="_0AE4378E-9002-40C6-9329-C6EED9047640frame9" oryx:anchors="top left" style="opacity:1; fill:none;" d="M 7 4 L 7 16" stroke="#000000"/> 	</g> 	 	<g id="_0AE4378E-9002-40C6-9329-C6EED9047640scriptTask" transform="scale(0.7,0.7) translate(8,8)" display="none"> 		<path oryx:anchors="top left" id="_0AE4378E-9002-40C6-9329-C6EED9047640frame10" style="opacity:1;fill:none;" stroke="#000000" d="M6.402,0.5h14.5c0,0-5.833,2.833-5.833,5.583s4.417,6,4.417,9.167    s-4.167,5.083-4.167,5.083H0.235c0,0,5-2.667,5-5s-4.583-6.75-4.583-9.25S6.402,0.5,6.402,0.5z"/> 		<path oryx:anchors="top left" id="_0AE4378E-9002-40C6-9329-C6EED9047640frame11" style="opacity:1;fill:none;stroke-width:1.5" d="M 3.5 4.5 L 13.5 4.5" stroke="#000000"/> 		<path oryx:anchors="top left" id="_0AE4378E-9002-40C6-9329-C6EED9047640frame12" style="opacity:1;fill:none;stroke-width:1.5" d="M 3.8 8.5 L 13.8 8.5" stroke="#000000"/> 		<path oryx:anchors="top left" id="_0AE4378E-9002-40C6-9329-C6EED9047640frame13" style="opacity:1;fill:none;stroke-width:1.5" d="M 6.3 12.5 L 16.3 12.5" stroke="#000000"/> 		<path oryx:anchors="top left" id="_0AE4378E-9002-40C6-9329-C6EED9047640frame14" style="opacity:1;fill:none;stroke-width:1.5" d="M 6.5 16.5 L 16.5 16.5" stroke="#000000"/> 	</g> 	 	<g id="_0AE4378E-9002-40C6-9329-C6EED9047640userTask" transform="scale(0.7,0.7) translate(8,8)" display="inherit"> 		<path id="_0AE4378E-9002-40C6-9329-C6EED9047640frame15" oryx:anchors="top left" style="opacity:1;fill:#F4F6F7" stroke="#000000" d="M0.585,24.167h24.083v-7.833c0,0-2.333-3.917-7.083-5.167h-9.25    c-4.417,1.333-7.833,5.75-7.833,5.75L0.585,24.167z"/> 		<path id="_0AE4378E-9002-40C6-9329-C6EED9047640frame16" oryx:anchors="top left" style="opacity:1;fill:none" d="M 6 20 L 6 24" stroke="#000000"/> 		<path id="_0AE4378E-9002-40C6-9329-C6EED9047640frame17" oryx:anchors="top left" style="opacity:1;fill:none" d="M 20 20 L 20 24" stroke="#000000"/> 		<circle id="_0AE4378E-9002-40C6-9329-C6EED9047640frame18" oryx:anchors="top left" fill="black" cx="13.002" cy="5.916" r="5.417" stroke="#000000"/> 		<path id="_0AE4378E-9002-40C6-9329-C6EED9047640frame19" oryx:anchors="top left" style="opacity:1;fill:#F0EFF0;" stroke="#000000" d="M8.043,7.083c0,0,2.814-2.426,5.376-1.807s4.624-0.693,4.624-0.693    c0.25,1.688,0.042,3.75-1.458,5.584c0,0,1.083,0.75,1.083,1.5s0.125,1.875-1,3s-5.5,1.25-6.75,0S8.668,12.834,8.668,12    s0.583-1.25,1.25-1.917C8.835,9.5,7.419,7.708,8.043,7.083z"/> 	</g> 	 	<g id="_0AE4378E-9002-40C6-9329-C6EED9047640serviceTask" transform="scale(0.7,0.7) translate(8,8)" display="none"> 		<polygon oryx:anchors="top left" id="_0AE4378E-9002-40C6-9329-C6EED9047640frame20" style="opacity:1;fill:#ffffff" stroke="#000000" points="15.392,5.064 17.954,2.502 20.347,4.895 17.786,7.455     18.729,9.732 22.353,9.732 22.353,13.115 18.731,13.115 17.788,15.392 20.351,17.955 17.958,20.347 15.397,17.786 13.12,18.729     13.12,22.353 9.737,22.353 9.737,18.731 7.46,17.788 4.897,20.35 2.506,17.958 5.066,15.397 4.124,13.12 0.5,13.12 0.5,9.737     4.121,9.737 5.065,7.461 2.503,4.898 4.895,2.506 7.455,5.066 9.732,4.125 9.732,0.5 13.116,0.5 13.116,4.121 "/> 		<circle oryx:anchors="top left" id="_0AE4378E-9002-40C6-9329-C6EED9047640frame21" style="opacity:1;fill:none" stroke="#000000" cx="11.427" cy="11.426" r="3.714"/> 		<polygon oryx:anchors="top left" id="_0AE4378E-9002-40C6-9329-C6EED9047640frame22" style="opacity:1;fill:#ffffff" stroke="#000000" points="21.392,11.064 23.954,8.502 26.347,10.895 23.786,13.455     24.729,15.732 28.353,15.732 28.353,19.115 24.731,19.115 23.788,21.392 26.351,23.955 23.958,26.347 21.397,23.786 19.12,24.729     19.12,28.353 15.737,28.353 15.737,24.731 13.46,23.788 10.897,26.35 8.506,23.958 11.066,21.397 10.124,19.12 6.5,19.12     6.5,15.737 10.121,15.737 11.065,13.461 8.503,10.898 10.895,8.506 13.455,11.066 15.732,10.125 15.732,6.5 19.116,6.5     19.116,10.121 "/> 		<circle oryx:anchors="top left" id="_0AE4378E-9002-40C6-9329-C6EED9047640frame23" style="opacity:1;fill:none;" stroke="#000000" cx="17.427" cy="17.426" r="3.714"/> 	</g> 	 	<g id="_0AE4378E-9002-40C6-9329-C6EED9047640sendTask" display="none"> 		<path id="_0AE4378E-9002-40C6-9329-C6EED9047640stframe24" oryx:anchors="left top" stroke="#FFFFFF" fill="black" stroke-width="1" d="M8,11 L8,21 L24,21 L24,11 L16,17z"/> 		<path id="_0AE4378E-9002-40C6-9329-C6EED9047640stframe25" oryx:anchors="left top" stroke="#FFFFFF" fill="black" stroke-width="1" d="M7,10 L16,17 L25 10z"/> 	</g> 	 	<g id="_0AE4378E-9002-40C6-9329-C6EED9047640receiveTask" display="none"> 		<path id="_0AE4378E-9002-40C6-9329-C6EED9047640frame26" oryx:anchors="left top" stroke="#000000" fill="none" stroke-width="1" d="M8,11 L8,21 L24,21 L24,11z M8,11 L16,17 L24,11"/> 	</g> 	 	<g id="_0AE4378E-9002-40C6-9329-C6EED9047640none" display="inherit"/>  	<g id="_0AE4378E-9002-40C6-9329-C6EED9047640sequential" display="none">         <path oryx:anchors="bottom" fill="none" stroke="#000000" stroke-width="2" d="M46,76h10M46,72h10 M46,68h10" id="_0AE4378E-9002-40C6-9329-C6EED9047640__0AE4378E-9002-40C6-9329-C6EED9047640_20"/>     </g>   </g></g><g class="children" style="overflow:hidden"/><g class="edge"/></g><g class="controls"><g class="dockers"/><g class="magnets" transform="translate(375, 200)"><g pointer-events="all" display="none" transform="translate(-7, 12)"><circle cx="8" cy="8" r="4" stroke="none" fill="red" fill-opacity="0.3"/></g><g pointer-events="all" display="none" transform="translate(-7, 32)"><circle cx="8" cy="8" r="4" stroke="none" fill="red" fill-opacity="0.3"/></g><g pointer-events="all" display="none" transform="translate(-7, 52)"><circle cx="8" cy="8" r="4" stroke="none" fill="red" fill-opacity="0.3"/></g><g pointer-events="all" display="none" transform="translate(17, 71)"><circle cx="8" cy="8" r="4" stroke="none" fill="red" fill-opacity="0.3"/></g><g pointer-events="all" display="none" transform="translate(42, 71)"><circle cx="8" cy="8" r="4" stroke="none" fill="red" fill-opacity="0.3"/></g><g pointer-events="all" display="none" transform="translate(67, 71)"><circle cx="8" cy="8" r="4" stroke="none" fill="red" fill-opacity="0.3"/></g><g pointer-events="all" display="none" transform="translate(91, 12)"><circle cx="8" cy="8" r="4" stroke="none" fill="red" fill-opacity="0.3"/></g><g pointer-events="all" display="none" transform="translate(91, 32)"><circle cx="8" cy="8" r="4" stroke="none" fill="red" fill-opacity="0.3"/></g><g pointer-events="all" display="none" transform="translate(91, 52)"><circle cx="8" cy="8" r="4" stroke="none" fill="red" fill-opacity="0.3"/></g><g pointer-events="all" display="none" transform="translate(17, -7)"><circle cx="8" cy="8" r="4" stroke="none" fill="red" fill-opacity="0.3"/></g><g pointer-events="all" display="none" transform="translate(42, -7)"><circle cx="8" cy="8" r="4" stroke="none" fill="red" fill-opacity="0.3"/></g><g pointer-events="all" display="none" transform="translate(67, -7)"><circle cx="8" cy="8" r="4" stroke="none" fill="red" fill-opacity="0.3"/></g><g pointer-events="all" display="none" transform="translate(42, 32)"><circle cx="8" cy="8" r="4" stroke="none" fill="red" fill-opacity="0.3"/></g></g></g></g><g id="_06FC11A2-4089-441B-8570-8D1A60663225" bpmn2nodeid="_E18B893D-B455-4905-B3A7-63234994AC9F"><g class="stencils" transform="translate(645, 226)"><g class="me"><g pointer-events="fill" id="_06FC11A2-4089-441B-8570-8D1A60663225">      <defs id="_06FC11A2-4089-441B-8570-8D1A60663225__06FC11A2-4089-441B-8570-8D1A60663225_5"> 		<radialGradient id="_06FC11A2-4089-441B-8570-8D1A60663225background" cx="10%" cy="10%" r="100%" fx="10%" fy="10%"> 			<stop offset="0%" stop-color="#ffffff" stop-opacity="1" id="_06FC11A2-4089-441B-8570-8D1A60663225__06FC11A2-4089-441B-8570-8D1A60663225_6"/> 			<stop id="_06FC11A2-4089-441B-8570-8D1A60663225fill_el" offset="100%" stop-color="#ff6347" stop-opacity="1"/> 		</radialGradient> 	</defs> 	     <circle id="_06FC11A2-4089-441B-8570-8D1A60663225bg_frame" cx="14" cy="14" r="14" stroke="#000000" fill="url(#_06FC11A2-4089-441B-8570-8D1A60663225background) white" stroke-width="3"/> 	<text font-size="11" id="_06FC11A2-4089-441B-8570-8D1A60663225text_name" x="14" y="30" oryx:align="top center" stroke="black" stroke-width="0pt" letter-spacing="-0.01px" fill="#000000" text-anchor="middle" transform="rotate(0 14 30)" visibility="inherit" oryx:fontSize="11"/>   </g></g><g class="children" style="overflow:hidden"/><g class="edge"/></g><g class="controls"><g class="dockers"/><g class="magnets" transform="translate(645, 226)"><g pointer-events="all" display="none" transform="translate(6, 6)"><circle cx="8" cy="8" r="4" stroke="none" fill="red" fill-opacity="0.3"/></g></g></g></g><g id="_58FFAD3C-82A3-41A2-A399-435C9AC9F2EA" bpmn2nodeid="_571BF1F7-85FD-4782-ABDE-C52FB4FF8AF2"><g class="stencils" transform="translate(540, 220)"><g class="me"><g id="_58FFAD3C-82A3-41A2-A399-435C9AC9F2EA">        <defs id="_58FFAD3C-82A3-41A2-A399-435C9AC9F2EA__58FFAD3C-82A3-41A2-A399-435C9AC9F2EA_4"> 		<radialGradient id="_58FFAD3C-82A3-41A2-A399-435C9AC9F2EAbackground" cx="10%" cy="10%" r="100%" fx="10%" fy="10%"> 			<stop offset="0%" stop-color="#ffffff" stop-opacity="1" id="_58FFAD3C-82A3-41A2-A399-435C9AC9F2EA__58FFAD3C-82A3-41A2-A399-435C9AC9F2EA_5"/> 			<stop id="_58FFAD3C-82A3-41A2-A399-435C9AC9F2EAfill_el" offset="100%" stop-color="#f0e68c" stop-opacity="1"/> 		</radialGradient> 		<radialGradient id="_58FFAD3C-82A3-41A2-A399-435C9AC9F2EAborderbackground" cx="10%" cy="10%" r="100%" fx="10%" fy="10%"> 			<stop offset="0%" stop-color="#ffffff" stop-opacity="1" id="_58FFAD3C-82A3-41A2-A399-435C9AC9F2EA__58FFAD3C-82A3-41A2-A399-435C9AC9F2EA_6"/> 			<stop id="_58FFAD3C-82A3-41A2-A399-435C9AC9F2EAfill_border" offset="100%" stop-color="#a67f00" stop-opacity="1" stroke="#a67f00"/> 		</radialGradient> 	</defs> 	     <path d=" M0 20.5  L20.5 0  L40 20.5  L20.5 40  z" id="_58FFAD3C-82A3-41A2-A399-435C9AC9F2EAbg_frame" fill="url(#_58FFAD3C-82A3-41A2-A399-435C9AC9F2EAbackground) white" style="stroke-width:1" stroke="#a67f00"/>     <g id="_58FFAD3C-82A3-41A2-A399-435C9AC9F2EAframe" stroke="#a67f00">       <path id="_58FFAD3C-82A3-41A2-A399-435C9AC9F2EAframe2" d=" M13.25 12.05  L17.25 12.05  L27.65 28.95  L23.75 28.95  z" style="stroke-width:1" stroke="#a67f00" fill="url(#_58FFAD3C-82A3-41A2-A399-435C9AC9F2EAborderbackground)"/>       <path id="_58FFAD3C-82A3-41A2-A399-435C9AC9F2EAframe3" d=" M13.25 28.95  L23.75 12.05  L27.65 12.05  L17.25 28.95  z" style="stroke-width:1" stroke="#a67f00" fill="url(#_58FFAD3C-82A3-41A2-A399-435C9AC9F2EAborderbackground)"/>     </g> 	 	<text id="_58FFAD3C-82A3-41A2-A399-435C9AC9F2EAtext_name" x="30.5" y="30.5" oryx:align="left top" stroke-width="0pt" letter-spacing="-0.01px" fill="#000000" text-anchor="start" transform="rotate(0 30.5 30.5)" visibility="inherit" oryx:fontSize="12"/> 	   </g></g><g class="children" style="overflow:hidden"/><g class="edge"/></g><g class="controls"><g class="dockers"/><g class="magnets" transform="translate(540, 220)"><g pointer-events="all" display="none" transform="translate(12.5, 12.5)"><circle cx="8" cy="8" r="4" stroke="none" fill="red" fill-opacity="0.3"/></g></g></g></g><g id="_3145F057-04FD-4DFA-AAC0-892310206A79" bpmn2nodeid="_604A30D2-A276-437D-AAF2-5F8D9B9F9F4D"><g class="stencils" transform="translate(270, 220)"><g class="me"><g id="_3145F057-04FD-4DFA-AAC0-892310206A79">        <defs id="_3145F057-04FD-4DFA-AAC0-892310206A79__3145F057-04FD-4DFA-AAC0-892310206A79_4"> 		<radialGradient id="_3145F057-04FD-4DFA-AAC0-892310206A79background" cx="10%" cy="10%" r="100%" fx="10%" fy="10%"> 			<stop offset="0%" stop-color="#ffffff" stop-opacity="1" id="_3145F057-04FD-4DFA-AAC0-892310206A79__3145F057-04FD-4DFA-AAC0-892310206A79_5"/> 			<stop id="_3145F057-04FD-4DFA-AAC0-892310206A79fill_el" offset="100%" stop-color="#f0e68c" stop-opacity="1"/> 		</radialGradient> 		<radialGradient id="_3145F057-04FD-4DFA-AAC0-892310206A79borderbackground" cx="10%" cy="10%" r="100%" fx="10%" fy="10%"> 			<stop offset="0%" stop-color="#ffffff" stop-opacity="1" id="_3145F057-04FD-4DFA-AAC0-892310206A79__3145F057-04FD-4DFA-AAC0-892310206A79_6"/> 			<stop id="_3145F057-04FD-4DFA-AAC0-892310206A79fill_border" offset="100%" stop-color="#a67f00" stop-opacity="1" stroke="#a67f00"/> 		</radialGradient> 	</defs> 	     <path d=" M0 20.5  L20.5 0  L40 20.5  L20.5 40  z" id="_3145F057-04FD-4DFA-AAC0-892310206A79bg_frame" fill="url(#_3145F057-04FD-4DFA-AAC0-892310206A79background) white" style="stroke-width:1" stroke="#a67f00"/>     <g id="_3145F057-04FD-4DFA-AAC0-892310206A79frame" stroke="#a67f00">       <path id="_3145F057-04FD-4DFA-AAC0-892310206A79frame2" d=" M13.25 12.05  L17.25 12.05  L27.65 28.95  L23.75 28.95  z" style="stroke-width:1" stroke="#a67f00" fill="url(#_3145F057-04FD-4DFA-AAC0-892310206A79borderbackground)"/>       <path id="_3145F057-04FD-4DFA-AAC0-892310206A79frame3" d=" M13.25 28.95  L23.75 12.05  L27.65 12.05  L17.25 28.95  z" style="stroke-width:1" stroke="#a67f00" fill="url(#_3145F057-04FD-4DFA-AAC0-892310206A79borderbackground)"/>     </g> 	 	<text id="_3145F057-04FD-4DFA-AAC0-892310206A79text_name" x="30.5" y="30.5" oryx:align="left top" stroke-width="0pt" letter-spacing="-0.01px" fill="#000000" text-anchor="start" transform="rotate(0 30.5 30.5)" visibility="inherit" oryx:fontSize="12"/> 	   </g></g><g class="children" style="overflow:hidden"/><g class="edge"/></g><g class="controls"><g class="dockers"/><g class="magnets" transform="translate(270, 220)"><g pointer-events="all" display="none" transform="translate(12.5, 12.5)"><circle cx="8" cy="8" r="4" stroke="none" fill="red" fill-opacity="0.3"/></g></g></g></g><g id="_5D442FF5-4A24-4639-80F1-95EF16F0A39C" bpmn2nodeid="_467388C1-AFA6-4F06-B992-EBFD83F77E84"><g class="stencils" transform="translate(375, 75)"><g class="me"><g pointer-events="fill" oryx:minimumSize="50 40" id="_5D442FF5-4A24-4639-80F1-95EF16F0A39C">   	<defs id="_5D442FF5-4A24-4639-80F1-95EF16F0A39C__5D442FF5-4A24-4639-80F1-95EF16F0A39C_17"> 		<radialGradient id="_5D442FF5-4A24-4639-80F1-95EF16F0A39Cbackground" cx="10%" cy="10%" r="100%" fx="10%" fy="10%"> 			<stop offset="0%" stop-color="#ffffff" stop-opacity="1" id="_5D442FF5-4A24-4639-80F1-95EF16F0A39C__5D442FF5-4A24-4639-80F1-95EF16F0A39C_18"/> 			<stop id="_5D442FF5-4A24-4639-80F1-95EF16F0A39Cfill_el" offset="100%" stop-color="#fafad2" stop-opacity="1"/> 		</radialGradient> 		<radialGradient id="_5D442FF5-4A24-4639-80F1-95EF16F0A39Cborderbackground" cx="10%" cy="10%" r="100%" fx="10%" fy="10%"> 			<stop offset="0%" stop-color="#ffffff" stop-opacity="1" id="_5D442FF5-4A24-4639-80F1-95EF16F0A39C__5D442FF5-4A24-4639-80F1-95EF16F0A39C_19"/> 			<stop id="_5D442FF5-4A24-4639-80F1-95EF16F0A39Cfill_border" offset="100%" stop-color="#000000" stop-opacity="1" stroke="#000000"/> 		</radialGradient> 	</defs> 	 	<rect id="_5D442FF5-4A24-4639-80F1-95EF16F0A39Ctext_frame" oryx:anchors="bottom top right left" x="1" y="1" width="94" height="79" rx="10" ry="10" stroke="none" stroke-width="0" fill="none"/> 	<rect id="_5D442FF5-4A24-4639-80F1-95EF16F0A39Cbg_frame" oryx:resize="vertical horizontal" x="0" y="0" width="100" height="80" rx="10" ry="10" stroke="#000000" stroke-width="1" fill="url(#_5D442FF5-4A24-4639-80F1-95EF16F0A39Cbackground) #ffffcc"/> 		<text font-size="12" id="_5D442FF5-4A24-4639-80F1-95EF16F0A39Ctext_name" x="50" y="40" oryx:align="middle center" oryx:fittoelem="text_frame" stroke="black" text-anchor="middle" stroke-width="0pt" letter-spacing="-0.01px" fill="#000000" transform="rotate(0 50 40)" visibility="inherit" oryx:fontSize="12"><tspan x="50" y="40" dy="5">Ejecutar script</tspan></text>     <g id="_5D442FF5-4A24-4639-80F1-95EF16F0A39CmanualTask" transform="scale(0.7,0.7) translate(8,8)" display="none">     	<path oryx:anchors="top left" id="_5D442FF5-4A24-4639-80F1-95EF16F0A39Cframe" style="opacity:1;fill:none;fill-opacity:1;stroke-width:1" d="M0.5,3.751l4.083-3.25c0,0,11.166,0.083,12.083,0.083s-2.417,2.917-1.5,2.917     s11.667,0,12.584,0c1.166,1.708-0.168,3.167-0.834,3.667s0.875,1.917-1,4.417c-0.75,0.25,0.75,1.875-1.333,3.333     c-1.167,0.583,0.583,1.542-1.25,2.833c-1.167,0-20.833,0.083-20.833,0.083l-2-1.333V3.751z" stroke="#000000"/> 		<path id="_5D442FF5-4A24-4639-80F1-95EF16F0A39Cframe2" oryx:anchors="top left" style="opacity:1;fill:none;stroke-width:2" d="M 13.5 7 L 27 7" stroke="#000000"/> 		<path id="_5D442FF5-4A24-4639-80F1-95EF16F0A39Cframe3" oryx:anchors="top left" style="opacity:1;fill:none;stroke-width:2" d="M 13.5 11 L 26 11" stroke="#000000"/> 		<path id="_5D442FF5-4A24-4639-80F1-95EF16F0A39Cframe4" oryx:anchors="top left" style="opacity:1;fill:none;stroke-width:1.5" d="M 14 14.5 L 25 14.5" stroke="#000000"/> 		<path id="_5D442FF5-4A24-4639-80F1-95EF16F0A39Cframe5" oryx:anchors="top left" style="opacity:1;fill:none;stroke-width:1.5" d="M 8.2 3.1 L 15 3.1" stroke="#000000"/> 	</g> 	 	<g id="_5D442FF5-4A24-4639-80F1-95EF16F0A39CbusinessRuleTask" transform="scale(0.7,0.7) translate(8,8)" display="none"> 		<rect id="_5D442FF5-4A24-4639-80F1-95EF16F0A39Cframe6" oryx:anchors="top left" x="0" y="0" width="22" height="4" style="opacity:1;fill:#B3B1B3;fill-opacity:1;" stroke="#000000"/> 		<rect id="_5D442FF5-4A24-4639-80F1-95EF16F0A39Cframe7" oryx:anchors="top left" x="0" y="4" style="opacity:1;fill:none;" width="22" height="12" stroke="#000000"/> 		<path id="_5D442FF5-4A24-4639-80F1-95EF16F0A39Cframe8" oryx:anchors="top left" style="opacity:1;fill:none;" d="M 0 10 L 22 10" stroke="#000000"/> 		<path id="_5D442FF5-4A24-4639-80F1-95EF16F0A39Cframe9" oryx:anchors="top left" style="opacity:1; fill:none;" d="M 7 4 L 7 16" stroke="#000000"/> 	</g> 	 	<g id="_5D442FF5-4A24-4639-80F1-95EF16F0A39CscriptTask" transform="scale(0.7,0.7) translate(8,8)" display="inherit"> 		<path oryx:anchors="top left" id="_5D442FF5-4A24-4639-80F1-95EF16F0A39Cframe10" style="opacity:1;fill:none;" stroke="#000000" d="M6.402,0.5h14.5c0,0-5.833,2.833-5.833,5.583s4.417,6,4.417,9.167    s-4.167,5.083-4.167,5.083H0.235c0,0,5-2.667,5-5s-4.583-6.75-4.583-9.25S6.402,0.5,6.402,0.5z"/> 		<path oryx:anchors="top left" id="_5D442FF5-4A24-4639-80F1-95EF16F0A39Cframe11" style="opacity:1;fill:none;stroke-width:1.5" d="M 3.5 4.5 L 13.5 4.5" stroke="#000000"/> 		<path oryx:anchors="top left" id="_5D442FF5-4A24-4639-80F1-95EF16F0A39Cframe12" style="opacity:1;fill:none;stroke-width:1.5" d="M 3.8 8.5 L 13.8 8.5" stroke="#000000"/> 		<path oryx:anchors="top left" id="_5D442FF5-4A24-4639-80F1-95EF16F0A39Cframe13" style="opacity:1;fill:none;stroke-width:1.5" d="M 6.3 12.5 L 16.3 12.5" stroke="#000000"/> 		<path oryx:anchors="top left" id="_5D442FF5-4A24-4639-80F1-95EF16F0A39Cframe14" style="opacity:1;fill:none;stroke-width:1.5" d="M 6.5 16.5 L 16.5 16.5" stroke="#000000"/> 	</g> 	 	<g id="_5D442FF5-4A24-4639-80F1-95EF16F0A39CuserTask" transform="scale(0.7,0.7) translate(8,8)" display="none"> 		<path id="_5D442FF5-4A24-4639-80F1-95EF16F0A39Cframe15" oryx:anchors="top left" style="opacity:1;fill:#F4F6F7" stroke="#000000" d="M0.585,24.167h24.083v-7.833c0,0-2.333-3.917-7.083-5.167h-9.25    c-4.417,1.333-7.833,5.75-7.833,5.75L0.585,24.167z"/> 		<path id="_5D442FF5-4A24-4639-80F1-95EF16F0A39Cframe16" oryx:anchors="top left" style="opacity:1;fill:none" d="M 6 20 L 6 24" stroke="#000000"/> 		<path id="_5D442FF5-4A24-4639-80F1-95EF16F0A39Cframe17" oryx:anchors="top left" style="opacity:1;fill:none" d="M 20 20 L 20 24" stroke="#000000"/> 		<circle id="_5D442FF5-4A24-4639-80F1-95EF16F0A39Cframe18" oryx:anchors="top left" fill="black" cx="13.002" cy="5.916" r="5.417" stroke="#000000"/> 		<path id="_5D442FF5-4A24-4639-80F1-95EF16F0A39Cframe19" oryx:anchors="top left" style="opacity:1;fill:#F0EFF0;" stroke="#000000" d="M8.043,7.083c0,0,2.814-2.426,5.376-1.807s4.624-0.693,4.624-0.693    c0.25,1.688,0.042,3.75-1.458,5.584c0,0,1.083,0.75,1.083,1.5s0.125,1.875-1,3s-5.5,1.25-6.75,0S8.668,12.834,8.668,12    s0.583-1.25,1.25-1.917C8.835,9.5,7.419,7.708,8.043,7.083z"/> 	</g> 	 	<g id="_5D442FF5-4A24-4639-80F1-95EF16F0A39CserviceTask" transform="scale(0.7,0.7) translate(8,8)" display="none"> 		<polygon oryx:anchors="top left" id="_5D442FF5-4A24-4639-80F1-95EF16F0A39Cframe20" style="opacity:1;fill:#ffffff" stroke="#000000" points="15.392,5.064 17.954,2.502 20.347,4.895 17.786,7.455     18.729,9.732 22.353,9.732 22.353,13.115 18.731,13.115 17.788,15.392 20.351,17.955 17.958,20.347 15.397,17.786 13.12,18.729     13.12,22.353 9.737,22.353 9.737,18.731 7.46,17.788 4.897,20.35 2.506,17.958 5.066,15.397 4.124,13.12 0.5,13.12 0.5,9.737     4.121,9.737 5.065,7.461 2.503,4.898 4.895,2.506 7.455,5.066 9.732,4.125 9.732,0.5 13.116,0.5 13.116,4.121 "/> 		<circle oryx:anchors="top left" id="_5D442FF5-4A24-4639-80F1-95EF16F0A39Cframe21" style="opacity:1;fill:none" stroke="#000000" cx="11.427" cy="11.426" r="3.714"/> 		<polygon oryx:anchors="top left" id="_5D442FF5-4A24-4639-80F1-95EF16F0A39Cframe22" style="opacity:1;fill:#ffffff" stroke="#000000" points="21.392,11.064 23.954,8.502 26.347,10.895 23.786,13.455     24.729,15.732 28.353,15.732 28.353,19.115 24.731,19.115 23.788,21.392 26.351,23.955 23.958,26.347 21.397,23.786 19.12,24.729     19.12,28.353 15.737,28.353 15.737,24.731 13.46,23.788 10.897,26.35 8.506,23.958 11.066,21.397 10.124,19.12 6.5,19.12     6.5,15.737 10.121,15.737 11.065,13.461 8.503,10.898 10.895,8.506 13.455,11.066 15.732,10.125 15.732,6.5 19.116,6.5     19.116,10.121 "/> 		<circle oryx:anchors="top left" id="_5D442FF5-4A24-4639-80F1-95EF16F0A39Cframe23" style="opacity:1;fill:none;" stroke="#000000" cx="17.427" cy="17.426" r="3.714"/> 	</g> 	 	<g id="_5D442FF5-4A24-4639-80F1-95EF16F0A39CsendTask" display="none"> 		<path id="_5D442FF5-4A24-4639-80F1-95EF16F0A39Cstframe24" oryx:anchors="left top" stroke="#FFFFFF" fill="black" stroke-width="1" d="M8,11 L8,21 L24,21 L24,11 L16,17z"/> 		<path id="_5D442FF5-4A24-4639-80F1-95EF16F0A39Cstframe25" oryx:anchors="left top" stroke="#FFFFFF" fill="black" stroke-width="1" d="M7,10 L16,17 L25 10z"/> 	</g> 	 	<g id="_5D442FF5-4A24-4639-80F1-95EF16F0A39CreceiveTask" display="none"> 		<path id="_5D442FF5-4A24-4639-80F1-95EF16F0A39Cframe26" oryx:anchors="left top" stroke="#000000" fill="none" stroke-width="1" d="M8,11 L8,21 L24,21 L24,11z M8,11 L16,17 L24,11"/> 	</g> 	 	<g id="_5D442FF5-4A24-4639-80F1-95EF16F0A39Cnone" display="inherit"/>  	<g id="_5D442FF5-4A24-4639-80F1-95EF16F0A39Csequential" display="none">         <path oryx:anchors="bottom" fill="none" stroke="#000000" stroke-width="2" d="M46,76h10M46,72h10 M46,68h10" id="_5D442FF5-4A24-4639-80F1-95EF16F0A39C__5D442FF5-4A24-4639-80F1-95EF16F0A39C_20"/>     </g>   </g></g><g class="children" style="overflow:hidden"/><g class="edge"/></g><g class="controls"><g class="dockers"/><g class="magnets" transform="translate(375, 75)"><g pointer-events="all" display="none" transform="translate(-7, 12)"><circle cx="8" cy="8" r="4" stroke="none" fill="red" fill-opacity="0.3"/></g><g pointer-events="all" display="none" transform="translate(-7, 32)"><circle cx="8" cy="8" r="4" stroke="none" fill="red" fill-opacity="0.3"/></g><g pointer-events="all" display="none" transform="translate(-7, 52)"><circle cx="8" cy="8" r="4" stroke="none" fill="red" fill-opacity="0.3"/></g><g pointer-events="all" display="none" transform="translate(17, 71)"><circle cx="8" cy="8" r="4" stroke="none" fill="red" fill-opacity="0.3"/></g><g pointer-events="all" display="none" transform="translate(42, 71)"><circle cx="8" cy="8" r="4" stroke="none" fill="red" fill-opacity="0.3"/></g><g pointer-events="all" display="none" transform="translate(67, 71)"><circle cx="8" cy="8" r="4" stroke="none" fill="red" fill-opacity="0.3"/></g><g pointer-events="all" display="none" transform="translate(91, 12)"><circle cx="8" cy="8" r="4" stroke="none" fill="red" fill-opacity="0.3"/></g><g pointer-events="all" display="none" transform="translate(91, 32)"><circle cx="8" cy="8" r="4" stroke="none" fill="red" fill-opacity="0.3"/></g><g pointer-events="all" display="none" transform="translate(91, 52)"><circle cx="8" cy="8" r="4" stroke="none" fill="red" fill-opacity="0.3"/></g><g pointer-events="all" display="none" transform="translate(17, -7)"><circle cx="8" cy="8" r="4" stroke="none" fill="red" fill-opacity="0.3"/></g><g pointer-events="all" display="none" transform="translate(42, -7)"><circle cx="8" cy="8" r="4" stroke="none" fill="red" fill-opacity="0.3"/></g><g pointer-events="all" display="none" transform="translate(67, -7)"><circle cx="8" cy="8" r="4" stroke="none" fill="red" fill-opacity="0.3"/></g><g pointer-events="all" display="none" transform="translate(42, 32)"><circle cx="8" cy="8" r="4" stroke="none" fill="red" fill-opacity="0.3"/></g></g></g></g></g><g class="edge"><g id="_0E23DF2B-34E7-41C7-991F-63DF9DF31332" bpmn2nodeid="_251250DA-0E93-4790-902A-4F64B07DE26A"><g class="stencils"><g class="me"><g pointer-events="painted" bpmn2nodeid="_6FB84214-A170-4A20-95A9-37200120663E"><path id="_0E23DF2B-34E7-41C7-991F-63DF9DF31332_1" d="M210.84375 240L269.703125 240 " stroke="#000000" fill="none" stroke-width="2" stroke-linecap="round" stroke-linejoin="round" marker-start="url(#_0E23DF2B-34E7-41C7-991F-63DF9DF31332start)" marker-end="url(#_0E23DF2B-34E7-41C7-991F-63DF9DF31332end)"/></g><text id="_0E23DF2B-34E7-41C7-991F-63DF9DF31332text_name" font-size="12" x="224.84375" y="226" oryx:edgePosition="startTop" stroke-width="0pt" letter-spacing="-0.01px" fill="#000000" text-anchor="start" transform="rotate(360 210.84375 240)" visibility="inherit" oryx:fontSize="12"/></g><g class="children" style="overflow:hidden"/><g class="edge"/></g><g class="controls"><g class="dockers"/><g class="magnets"/></g></g><g id="_1D3DE6B3-E44B-463A-8D33-10939023C8C7" bpmn2nodeid="_E11C90D9-20DA-4B70-92D4-70A0CDBD65B5"><g class="stencils"><g class="me"><g pointer-events="painted" bpmn2nodeid="_8AAD85BD-B477-4AD1-89AA-03326C327BCA"><path id="_1D3DE6B3-E44B-463A-8D33-10939023C8C7_1" d="M579.5625 240L644.078125 240 " stroke="#000000" fill="none" stroke-width="2" stroke-linecap="round" stroke-linejoin="round" marker-start="url(#_1D3DE6B3-E44B-463A-8D33-10939023C8C7start)" marker-end="url(#_1D3DE6B3-E44B-463A-8D33-10939023C8C7end)"/></g><text id="_1D3DE6B3-E44B-463A-8D33-10939023C8C7text_name" font-size="12" x="593.5625" y="226" oryx:edgePosition="startTop" stroke-width="0pt" letter-spacing="-0.01px" fill="#000000" text-anchor="start" transform="rotate(360 579.5625 240)" visibility="inherit" oryx:fontSize="12"/></g><g class="children" style="overflow:hidden"/><g class="edge"/></g><g class="controls"><g class="dockers"/><g class="magnets"/></g></g><g id="_A5E0FB53-B1F5-443C-ABBD-C27A7B6D1637" bpmn2nodeid="_D7583605-A7D9-4382-90DA-8FE0D997E909"><g class="stencils"><g class="me"><g pointer-events="painted" bpmn2nodeid="_23BFC776-7690-4234-AE66-B040D72A4321"><path id="_A5E0FB53-B1F5-443C-ABBD-C27A7B6D1637_1" d="M560 220.4453125L560 115 L475.5703125 115 " stroke="#000000" fill="none" stroke-width="2" stroke-linecap="round" stroke-linejoin="round" marker-start="url(#_A5E0FB53-B1F5-443C-ABBD-C27A7B6D1637start)" marker-end="url(#_A5E0FB53-B1F5-443C-ABBD-C27A7B6D1637end)"/></g><text id="_A5E0FB53-B1F5-443C-ABBD-C27A7B6D1637text_name" font-size="12" x="574" y="206.4453125" oryx:edgePosition="startTop" stroke-width="0pt" letter-spacing="-0.01px" fill="#000000" text-anchor="start" transform="rotate(270 560 220.4453125)" visibility="inherit" oryx:fontSize="12"/></g><g class="children" style="overflow:hidden"/><g class="edge"/></g><g class="controls"><g class="dockers"/><g class="magnets"/></g></g><g id="_C2F0CA1D-6D12-473B-8678-8A89B203FC7A" bpmn2nodeid="_F303799F-98E4-4A22-B01F-FAF3D6AE11E6"><g class="stencils"><g class="me"><g pointer-events="painted" bpmn2nodeid="_D04F644F-FF43-4777-A7C4-A436AFC928C2"><path id="_C2F0CA1D-6D12-473B-8678-8A89B203FC7A_1" d="M309.984375 240L374.4296875 240 " stroke="#000000" fill="none" stroke-width="2" stroke-linecap="round" stroke-linejoin="round" marker-start="url(#_C2F0CA1D-6D12-473B-8678-8A89B203FC7Astart)" marker-end="url(#_C2F0CA1D-6D12-473B-8678-8A89B203FC7Aend)"/></g><text id="_C2F0CA1D-6D12-473B-8678-8A89B203FC7Atext_name" font-size="12" x="323.984375" y="226" oryx:edgePosition="startTop" stroke-width="0pt" letter-spacing="-0.01px" fill="#000000" text-anchor="start" transform="rotate(360 309.984375 240)" visibility="inherit" oryx:fontSize="12"/></g><g class="children" style="overflow:hidden"/><g class="edge"/></g><g class="controls"><g class="dockers"/><g class="magnets"/></g></g><g id="_63DFC5C5-3CC9-4548-9FD9-961DEAA2B054" bpmn2nodeid="_246C5DA4-3ADD-4D25-A765-A491F85F250D"><g class="stencils"><g class="me"><g pointer-events="painted" bpmn2nodeid="_490EE160-E4D8-46EC-91DF-67CE8A53049D"><path id="_63DFC5C5-3CC9-4548-9FD9-961DEAA2B054_1" d="M374.4296875 115L290 115 L290 220.4453125 " stroke="#000000" fill="none" stroke-width="2" stroke-linecap="round" stroke-linejoin="round" marker-start="url(#_63DFC5C5-3CC9-4548-9FD9-961DEAA2B054start)" marker-end="url(#_63DFC5C5-3CC9-4548-9FD9-961DEAA2B054end)"/></g><text id="_63DFC5C5-3CC9-4548-9FD9-961DEAA2B054text_name" font-size="12" x="360.4296875" y="101" oryx:edgePosition="startTop" stroke-width="0pt" letter-spacing="-0.01px" fill="#000000" text-anchor="end" transform="rotate(0 374.4296875 115)" visibility="inherit" oryx:fontSize="12"/></g><g class="children" style="overflow:hidden"/><g class="edge"/></g><g class="controls"><g class="dockers"/><g class="magnets"/></g></g><g id="_22DCB16F-0C18-4166-9BA8-9B5731A94EC1" bpmn2nodeid="_59CCE68D-9399-4575-BB8E-A18C6EF9B3B1"><g class="stencils"><g class="me"><g pointer-events="painted" bpmn2nodeid="_76DF66B3-13E1-4B75-B6AB-B17DAAE58B0B"><path id="_22DCB16F-0C18-4166-9BA8-9B5731A94EC1_1" d="M475.5703125 240L540.015625 240 " stroke="#000000" fill="none" stroke-width="2" stroke-linecap="round" stroke-linejoin="round" marker-start="url(#_22DCB16F-0C18-4166-9BA8-9B5731A94EC1start)" marker-end="url(#_22DCB16F-0C18-4166-9BA8-9B5731A94EC1end)"/></g><text id="_22DCB16F-0C18-4166-9BA8-9B5731A94EC1text_name" font-size="12" x="489.5703125" y="226" oryx:edgePosition="startTop" stroke-width="0pt" letter-spacing="-0.01px" fill="#000000" text-anchor="start" transform="rotate(360 475.5703125 240)" visibility="inherit" oryx:fontSize="12"/></g><g class="children" style="overflow:hidden"/><g class="edge"/></g><g class="controls"><g class="dockers"/><g class="magnets"/></g></g></g><text id="_E95E7A25-7222-4F13-BD5B-5FC3481A9FC4" style="stroke-width:1;fill:rgb(177,194,214);font-family:arial;font-weight:bold" font-size="12" onclick="ORYX.Plugins.CanvasTitle.openTextualAnalysis()" onmouseover="ORYX.Plugins.CanvasTitle.addToolTip('_E95E7A25-7222-4F13-BD5B-5FC3481A9FC4')" transform="translate(10, 20)">partOffice v.1.0 (Docux.partOffice)</text></g></g></svg>